<svg width="91" height="130" viewBox="0 0 91 130" fill="none" xmlns="http://www.w3.org/2000/svg">
<g id="body">
<path d="M6 50L3 5L51 2.5V44.5C51 49.7 53 56 54 58.5C65.8333 73.6667 89.3 103.9 88.5 103.5C83.5 102 75.5 103.5 69 109C59 119 60.6667 123.5 60 128C48.6667 116 25.5 91.4 25.5 91C29 70.5 25.5 70.5 24 64.5C22.8 59.7 12 53.1667 6 50Z" fill="#D9D9D9"/>
<path d="M3 5L2.89597 3.00271L0.869444 3.10826L1.00443 5.13304L3 5ZM6 50L4.00443 50.133L4.07872 51.2475L5.06648 51.7688L6 50ZM24 64.5L25.9403 64.0149L25.9403 64.0149L24 64.5ZM25.5 91L23.5285 90.6634L23.5 90.8305V91H25.5ZM60 128L58.546 129.373L61.9784 128.293L60 128ZM69 109L67.7081 107.473L67.6446 107.527L67.5858 107.586L69 109ZM88.5 103.5L89.3944 101.711L89.24 101.634L89.0747 101.584L88.5 103.5ZM54 58.5L52.143 59.2428L52.2485 59.5064L52.4232 59.7303L54 58.5ZM51 2.5H53V0.393122L50.896 0.502707L51 2.5ZM1.00443 5.13304L4.00443 50.133L7.99557 49.867L4.99557 4.86696L1.00443 5.13304ZM5.06648 51.7688C8.01921 53.3272 12.1272 55.7014 15.6204 58.2526C17.3691 59.5297 18.9157 60.8166 20.0776 62.035C21.28 63.2958 21.8874 64.296 22.0597 64.9851L25.9403 64.0149C25.5126 62.3041 24.3199 60.6875 22.9724 59.2744C21.5843 57.8188 19.8309 56.3744 17.9796 55.0224C14.2728 52.3152 9.98079 49.8395 6.93352 48.2312L5.06648 51.7688ZM22.0597 64.9851C22.4785 66.6601 23.0456 67.9345 23.5129 69.0574C23.9793 70.1784 24.3857 71.231 24.6597 72.6833C25.2169 75.6366 25.268 80.4753 23.5285 90.6634L27.4715 91.3366C29.232 81.0247 29.2831 75.6134 28.5903 71.9417C28.2393 70.0815 27.7082 68.7279 27.2059 67.5207C26.7044 66.3155 26.2715 65.3399 25.9403 64.0149L22.0597 64.9851ZM23.5 91C23.5 91.4731 23.6739 91.8208 23.6899 91.8553C23.7413 91.9661 23.7928 92.0514 23.8198 92.0946C23.8768 92.186 23.9341 92.2639 23.9694 92.3107C24.0461 92.4125 24.139 92.526 24.2322 92.6368C24.4241 92.865 24.6944 93.1734 25.0256 93.5444C25.6919 94.2908 26.6497 95.3407 27.8259 96.6175C30.1804 99.1736 33.4349 102.666 37.0399 106.517C44.2512 114.22 52.8785 123.372 58.546 129.373L61.454 126.627C55.7881 120.628 47.1655 111.48 39.9601 103.783C36.3568 99.9341 33.1112 96.4514 30.7679 93.9075C29.5951 92.6343 28.6544 91.603 28.0095 90.8806C27.6852 90.5173 27.4466 90.2443 27.2937 90.0624C27.2144 89.9681 27.1759 89.9193 27.1642 89.9038C27.1553 89.892 27.1793 89.9225 27.2139 89.9781C27.2297 90.0034 27.2728 90.0736 27.3186 90.1723C27.329 90.1947 27.5 90.5331 27.5 91H23.5ZM61.9784 128.293C62.158 127.081 62.1938 125.745 62.2753 124.693C62.3628 123.563 62.5125 122.43 62.9092 121.158C63.698 118.631 65.5541 115.274 70.4142 110.414L67.5858 107.586C62.4459 112.726 60.1354 116.619 59.0908 119.967C58.5708 121.633 58.3872 123.093 58.2872 124.385C58.1812 125.755 58.1754 126.669 58.0216 127.707L61.9784 128.293ZM70.2919 110.527C76.3811 105.374 83.6954 104.147 87.9253 105.416L89.0747 101.584C83.3046 99.8533 74.6189 101.626 67.7081 107.473L70.2919 110.527ZM87.6056 105.289C87.6586 105.315 88.1772 105.596 88.8673 105.472C89.3121 105.393 89.7777 105.151 90.1122 104.709C90.4125 104.313 90.4902 103.91 90.5114 103.68C90.5497 103.266 90.4459 102.946 90.4247 102.878C90.3864 102.757 90.344 102.661 90.3194 102.608C90.2337 102.423 90.1205 102.245 90.0559 102.144C89.8953 101.895 89.6528 101.548 89.3564 101.136C88.7544 100.298 87.8459 99.0762 86.7081 97.5666C84.4291 94.5426 81.1956 90.3201 77.5718 85.6168C70.3225 76.2082 61.4948 64.8547 55.5768 57.2697L52.4232 59.7303C58.3385 67.3119 67.1608 78.6584 74.4032 88.0582C78.0252 92.7591 81.248 96.9678 83.5138 99.9741C84.6484 101.48 85.5344 102.672 86.1088 103.471C86.4007 103.877 86.5918 104.153 86.6928 104.31C86.7591 104.413 86.7337 104.383 86.6906 104.29C86.6766 104.26 86.6421 104.184 86.6088 104.078C86.5925 104.026 86.4908 103.719 86.5283 103.313C86.5491 103.087 86.6257 102.687 86.9241 102.294C87.2568 101.855 87.7199 101.614 88.1613 101.535C88.8449 101.413 89.3539 101.691 89.3944 101.711L87.6056 105.289ZM55.857 57.7572C54.8929 55.3471 53 49.325 53 44.5H49C49 50.075 51.1071 56.6529 52.143 59.2428L55.857 57.7572ZM53 44.5V2.5H49V44.5H53ZM50.896 0.502707L2.89597 3.00271L3.10403 6.99729L51.104 4.49729L50.896 0.502707Z" fill="black"/>
</g>
</svg>
