<svg width="34" height="46" viewBox="0 0 34 46" fill="none" xmlns="http://www.w3.org/2000/svg">
<path id="heel" fill="#D9D9D9" stroke="black" stroke-width="4" d="M10.022220548362732,3.9428564600372313 L13.768250548362733,5.593646460037231 L17.339680548362733,7.736506460037232 L21.06984054836273,10.43491646003723 L24.323810548362733,13.21269646003723 L27.18095054836273,16.14920646003723 L29.085710548362734,19.323806460037233 L30.51429054836273,23.29206646003723 L31.228570548362732,27.974606460037233 L31.228570548362732,33.926986460037234 L30.75238054836273,38.84761646003723 L29.800000548362732,42.81587646003723 L29.40317054836273,44.165076460037234 L24.879370548362733,42.81587646003723 L20.990480548362733,41.704766460037234 L17.419050548362733,40.27618646003723 L13.688890548362732,38.371426460037235 L10.355560548362734,35.83174646003723 L13.688890548362732,30.91110646003723 L9.561900548362733,28.212696460037233 L12.419050548362733,23.92698646003723 L2.4190505483627316,23.768256460037232 L2.974600548362732,18.60952646003723 L3.688890548362732,16.14920646003723 L4.641270548362732,13.450796460037232 L5.911110548362732,10.593646460037231 L7.180950548362732,8.05396646003723 C7.244440548362732,7.831746460037231 8.514280548362732,6.244446460037231 8.514280548362732,6.244446460037231 C8.593650548362731,6.403176460037232 8.982540548362731,5.371426460037231 10.022220548362732,3.9428564600372313 z"></path>
</svg>