<svg width="96" height="161" viewBox="0 0 96 161" fill="none" xmlns="http://www.w3.org/2000/svg">
<g id="sock">
<path id="point" d="M74 136C81.1226 130.302 88.3333 129 92.5 130.5C93.5 134.333 94.9145 145.091 86.5145 153.091C76.0145 163.091 63.9375 156.5 64 155C64.5 143 69 140 74 136Z" stroke="black" stroke-width="4"/>
<path id="body" d="M7 32L6.89597 30.0027L4.86944 30.1083L5.00443 32.133L7 32ZM10 77L8.00443 77.133L8.07872 78.2475L9.06648 78.7688L10 77ZM29.5 118L27.5285 117.663L27.5 117.83V118H29.5ZM64 155L62.546 156.373L65.9784 155.293L64 155ZM73 136L71.7081 134.473L71.6446 134.527L71.5858 134.586L73 136ZM92.5 130.5L93.3944 128.711L93.24 128.634L93.0747 128.584L92.5 130.5ZM58 85.5L56.143 86.2428L56.2485 86.5064L56.4232 86.7303L58 85.5ZM55 29.5H57V27.3931L54.896 27.5027L55 29.5ZM5.00443 32.133L8.00443 77.133L11.9956 76.867L8.99557 31.867L5.00443 32.133ZM9.06648 78.7688C12.0192 80.3272 16.1272 82.7014 19.6204 85.2526C21.3691 86.5297 22.9157 87.8166 24.0776 89.035C25.28 90.2958 25.8874 91.2959 26.0597 91.9851L29.9403 91.0149C29.5126 89.3041 28.32 87.6875 26.9724 86.2744C25.5843 84.8188 23.8309 83.3744 21.9796 82.0224C18.2728 79.3152 13.9808 76.8395 10.9335 75.2312L9.06648 78.7688ZM26.0597 91.9851C26.4785 93.6601 27.0456 94.9345 27.5129 96.0574C27.9793 97.1784 28.3857 98.231 28.6597 99.6833C29.2169 102.637 29.268 107.475 27.5285 117.663L31.4715 118.337C33.232 108.025 33.2831 102.613 32.5903 98.9417C32.2393 97.0815 31.7082 95.7279 31.2059 94.5207C30.7044 93.3155 30.2715 92.3399 29.9403 91.0149L26.0597 91.9851ZM27.5 118C27.5 118.473 27.6739 118.821 27.6899 118.855C27.7413 118.966 27.7928 119.051 27.8198 119.095C27.8768 119.186 27.9341 119.264 27.9694 119.311C28.0461 119.413 28.139 119.526 28.2322 119.637C28.4241 119.865 28.6944 120.173 29.0256 120.544C29.6919 121.291 30.6497 122.341 31.8259 123.618C34.1804 126.174 37.4349 129.666 41.0399 133.517C48.2512 141.22 56.8785 150.372 62.546 156.373L65.454 153.627C59.7881 147.628 51.1655 138.48 43.9601 130.783C40.3568 126.934 37.1112 123.451 34.7679 120.907C33.5951 119.634 32.6544 118.603 32.0095 117.881C31.6852 117.517 31.4466 117.244 31.2937 117.062C31.2144 116.968 31.1759 116.919 31.1642 116.904C31.1553 116.892 31.1793 116.922 31.2139 116.978C31.2297 117.003 31.2728 117.074 31.3186 117.172C31.329 117.195 31.5 117.533 31.5 118H27.5ZM65.9784 155.293C66.158 154.081 66.1938 152.745 66.2753 151.693C66.3628 150.563 66.5125 149.43 66.9092 148.158C67.698 145.631 69.5541 142.274 74.4142 137.414L71.5858 134.586C66.4459 139.726 64.1354 143.619 63.0908 146.967C62.5708 148.633 62.3872 150.093 62.2872 151.385C62.1812 152.755 62.1754 153.669 62.0216 154.707L65.9784 155.293ZM74.2919 137.527C80.3811 132.374 87.6954 131.147 91.9253 132.416L93.0747 128.584C87.3046 126.853 78.6189 128.626 71.7081 134.473L74.2919 137.527ZM91.6056 132.289C91.6586 132.315 92.1772 132.596 92.8673 132.472C93.3121 132.393 93.7777 132.151 94.1122 131.709C94.4125 131.313 94.4902 130.91 94.5114 130.68C94.5497 130.266 94.4459 129.946 94.4247 129.878C94.3864 129.757 94.344 129.661 94.3194 129.608C94.2337 129.423 94.1205 129.245 94.0559 129.144C93.8953 128.895 93.6528 128.548 93.3564 128.136C92.7544 127.298 91.8459 126.076 90.7081 124.567C88.4291 121.543 85.1956 117.32 81.5718 112.617C74.3225 103.208 65.4948 91.8547 59.5768 84.2697L56.4232 86.7303C62.3385 94.3119 71.1608 105.658 78.4032 115.058C82.0252 119.759 85.248 123.968 87.5138 126.974C88.6484 128.48 89.5344 129.672 90.1088 130.471C90.4007 130.877 90.5918 131.153 90.6928 131.31C90.7591 131.413 90.7337 131.383 90.6906 131.29C90.6766 131.26 90.6421 131.184 90.6088 131.078C90.5925 131.026 90.4908 130.719 90.5283 130.313C90.5491 130.087 90.6257 129.687 90.9241 129.294C91.2568 128.855 91.7199 128.614 92.1613 128.535C92.8449 128.413 93.3539 128.691 93.3944 128.711L91.6056 132.289ZM59.857 84.7572C58.8929 82.3471 57 76.325 57 71.5H53C53 77.075 55.1071 83.6529 56.143 86.2428L59.857 84.7572ZM57 71.5C57 71.4898 57 71.4796 57 71.4693C57 71.459 57 71.4486 57 71.4382C57 71.4277 57 71.4172 57 71.4066C57 71.396 57 71.3853 57 71.3745C57 71.3638 57 71.3529 57 71.342C57 71.3311 57 71.3201 57 71.3091C57 71.298 57 71.2869 57 71.2757C57 71.2645 57 71.2532 57 71.2419C57 71.2306 57 71.2191 57 71.2076C57 71.1961 57 71.1846 57 71.1729C57 71.1613 57 71.1496 57 71.1378C57 71.126 57 71.1142 57 71.1022C57 71.0903 57 71.0783 57 71.0662C57 71.0541 57 71.042 57 71.0298C57 71.0176 57 71.0053 57 70.9929C57 70.9805 57 70.9681 57 70.9556C57 70.9431 57 70.9305 57 70.9179C57 70.9052 57 70.8925 57 70.8797C57 70.8669 57 70.854 57 70.8411C57 70.8282 57 70.8152 57 70.8021C57 70.789 57 70.7759 57 70.7627C57 70.7495 57 70.7362 57 70.7228C57 70.7095 57 70.696 57 70.6825C57 70.669 57 70.6555 57 70.6418C57 70.6282 57 70.6145 57 70.6007C57 70.587 57 70.5731 57 70.5592C57 70.5453 57 70.5313 57 70.5173C57 70.5032 57 70.4891 57 70.4749C57 70.4607 57 70.4465 57 70.4321C57 70.4178 57 70.4034 57 70.389C57 70.3745 57 70.36 57 70.3454C57 70.3308 57 70.3161 57 70.3014C57 70.2867 57 70.2719 57 70.257C57 70.2421 57 70.2272 57 70.2122C57 70.1972 57 70.1821 57 70.167C57 70.1519 57 70.1367 57 70.1214C57 70.1061 57 70.0908 57 70.0754C57 70.06 57 70.0445 57 70.029C57 70.0135 57 69.9979 57 69.9822C57 69.9665 57 69.9508 57 69.935C57 69.9192 57 69.9033 57 69.8874C57 69.8715 57 69.8555 57 69.8394C57 69.8234 57 69.8073 57 69.7911C57 69.7749 57 69.7586 57 69.7423C57 69.726 57 69.7096 57 69.6932C57 69.6767 57 69.6602 57 69.6436C57 69.6271 57 69.6104 57 69.5937C57 69.577 57 69.5602 57 69.5434C57 69.5266 57 69.5097 57 69.4927C57 69.4758 57 69.4588 57 69.4417C57 69.4246 57 69.4074 57 69.3902C57 69.373 57 69.3558 57 69.3384C57 69.3211 57 69.3037 57 69.2862C57 69.2688 57 69.2512 57 69.2337C57 69.2161 57 69.1984 57 69.1807C57 69.163 57 69.1452 57 69.1274C57 69.1096 57 69.0917 57 69.0737C57 69.0558 57 69.0377 57 69.0197C57 69.0016 57 68.9834 57 68.9652C57 68.947 57 68.9288 57 68.9105C57 68.8921 57 68.8738 57 68.8553C57 68.8369 57 68.8184 57 68.7998C57 68.7812 57 68.7626 57 68.7439C57 68.7252 57 68.7065 57 68.6877C57 68.6689 57 68.65 57 68.6311C57 68.6122 57 68.5932 57 68.5742C57 68.5551 57 68.536 57 68.5169C57 68.4977 57 68.4785 57 68.4592C57 68.4399 57 68.4206 57 68.4012C57 68.3818 57 68.3623 57 68.3428C57 68.3233 57 68.3037 57 68.2841C57 68.2645 57 68.2448 57 68.2251C57 68.2053 57 68.1855 57 68.1657C57 68.1458 57 68.1259 57 68.1059C57 68.0859 57 68.0659 57 68.0458C57 68.0257 57 68.0056 57 67.9854C57 67.9652 57 67.9449 57 67.9246C57 67.9043 57 67.8839 57 67.8635C57 67.8431 57 67.8226 57 67.802C57 67.7815 57 67.7609 57 67.7402C57 67.7196 57 67.6989 57 67.6781C57 67.6574 57 67.6365 57 67.6157C57 67.5948 57 67.5739 57 67.5529C57 67.5319 57 67.5109 57 67.4898C57 67.4687 57 67.4475 57 67.4263C57 67.4051 57 67.3839 57 67.3625C57 67.3412 57 67.3199 57 67.2984C57 67.277 57 67.2555 57 67.234C57 67.2125 57 67.1909 57 67.1693C57 67.1476 57 67.1259 57 67.1042C57 67.0825 57 67.0607 57 67.0388C57 67.017 57 66.9951 57 66.9731C57 66.9511 57 66.9291 57 66.9071C57 66.885 57 66.8629 57 66.8407C57 66.8186 57 66.7963 57 66.7741C57 66.7518 57 66.7295 57 66.7071C57 66.6847 57 66.6623 57 66.6398C57 66.6173 57 66.5948 57 66.5722C57 66.5497 57 66.527 57 66.5043C57 66.4817 57 66.4589 57 66.4361C57 66.4133 57 66.3905 57 66.3676C57 66.3447 57 66.3218 57 66.2988C57 66.2758 57 66.2528 57 66.2297C57 66.2066 57 66.1835 57 66.1603C57 66.1371 57 66.1138 57 66.0906C57 66.0673 57 66.0439 57 66.0205C57 65.9972 57 65.9737 57 65.9502C57 65.9267 57 65.9032 57 65.8796C57 65.856 57 65.8324 57 65.8087C57 65.785 57 65.7613 57 65.7375C57 65.7138 57 65.6899 57 65.6661C57 65.6422 57 65.6183 57 65.5943C57 65.5703 57 65.5463 57 65.5222C57 65.4982 57 65.474 57 65.4499C57 65.4257 57 65.4015 57 65.3772C57 65.353 57 65.3287 57 65.3043C57 65.28 57 65.2556 57 65.2311C57 65.2067 57 65.1822 57 65.1577C57 65.1331 57 65.1085 57 65.0839C57 65.0593 57 65.0346 57 65.0099C57 64.9852 57 64.9604 57 64.9356C57 64.9108 57 64.8859 57 64.861C57 64.8361 57 64.8111 57 64.7861C57 64.7611 57 64.7361 57 64.711C57 64.6859 57 64.6608 57 64.6356C57 64.6104 57 64.5852 57 64.5599C57 64.5347 57 64.5094 57 64.484C57 64.4587 57 64.4333 57 64.4078C57 64.3824 57 64.3569 57 64.3314C57 64.3058 57 64.2802 57 64.2546C57 64.229 57 64.2033 57 64.1776C57 64.1519 57 64.1262 57 64.1004C57 64.0746 57 64.0488 57 64.0229C57 63.997 57 63.9711 57 63.9451C57 63.9192 57 63.8932 57 63.8671C57 63.8411 57 63.815 57 63.7888C57 63.7627 57 63.7365 57 63.7103C57 63.6841 57 63.6578 57 63.6315C57 63.6052 57 63.5789 57 63.5525C57 63.5261 57 63.4997 57 63.4732C57 63.4468 57 63.4203 57 63.3937C57 63.3672 57 63.3406 57 63.314C57 63.2873 57 63.2607 57 63.234C57 63.2073 57 63.1805 57 63.1537C57 63.1269 57 63.1001 57 63.0732C57 63.0464 57 63.0194 57 62.9925C57 62.9655 57 62.9386 57 62.9115C57 62.8845 57 62.8574 57 62.8303C57 62.8032 57 62.7761 57 62.7489C57 62.7217 57 62.6945 57 62.6672C57 62.64 57 62.6127 57 62.5853C57 62.558 57 62.5306 57 62.5032C57 62.4758 57 62.4483 57 62.4208C57 62.3933 57 62.3658 57 62.3382C57 62.3107 57 62.2831 57 62.2554C57 62.2278 57 62.2001 57 62.1724C57 62.1447 57 62.1169 57 62.0891C57 62.0613 57 62.0335 57 62.0056C57 61.9778 57 61.9499 57 61.9219C57 61.894 57 61.866 57 61.838C57 61.81 57 61.782 57 61.7539C57 61.7258 57 61.6977 57 61.6695C57 61.6414 57 61.6132 57 61.5849C57 61.5567 57 61.5285 57 61.5002C57 61.4719 57 61.4435 57 61.4152C57 61.3868 57 61.3584 57 61.33C57 61.3015 57 61.2731 57 61.2446C57 61.2161 57 61.1875 57 61.1589C57 61.1304 57 61.1018 57 61.0731C57 61.0445 57 61.0158 57 60.9871C57 60.9584 57 60.9296 57 60.9009C57 60.8721 57 60.8433 57 60.8144C57 60.7856 57 60.7567 57 60.7278C57 60.6989 57 60.67 57 60.641C57 60.612 57 60.583 57 60.554C57 60.5249 57 60.4958 57 60.4667C57 60.4376 57 60.4085 57 60.3793C57 60.3502 57 60.3209 57 60.2917C57 60.2625 57 60.2332 57 60.2039C57 60.1746 57 60.1453 57 60.1159C57 60.0866 57 60.0572 57 60.0278C57 59.9983 57 59.9689 57 59.9394C57 59.9099 57 59.8804 57 59.8509C57 59.8213 57 59.7917 57 59.7621C57 59.7325 57 59.7029 57 59.6732C57 59.6436 57 59.6139 57 59.5841C57 59.5544 57 59.5247 57 59.4949C57 59.4651 57 59.4353 57 59.4054C57 59.3756 57 59.3457 57 59.3158C57 59.2859 57 59.256 57 59.226C57 59.196 57 59.1661 57 59.136C57 59.106 57 59.076 57 59.0459C57 59.0158 57 58.9857 57 58.9556C57 58.9255 57 58.8953 57 58.8651C57 58.8349 57 58.8047 57 58.7745C57 58.7442 57 58.714 57 58.6837C57 58.6534 57 58.623 57 58.5927C57 58.5623 57 58.5319 57 58.5015C57 58.4711 57 58.4407 57 58.4102C57 58.3798 57 58.3493 57 58.3188C57 58.2883 57 58.2577 57 58.2272C57 58.1966 57 58.166 57 58.1354C57 58.1048 57 58.0741 57 58.0435C57 58.0128 57 57.9821 57 57.9514C57 57.9207 57 57.8899 57 57.8591C57 57.8284 57 57.7976 57 57.7668C57 57.7359 57 57.7051 57 57.6742C57 57.6433 57 57.6125 57 57.5815C57 57.5506 57 57.5197 57 57.4887C57 57.4577 57 57.4267 57 57.3957C57 57.3647 57 57.3337 57 57.3026C57 57.2715 57 57.2405 57 57.2093C57 57.1782 57 57.1471 57 57.1159C57 57.0848 57 57.0536 57 57.0224C57 56.9912 57 56.96 57 56.9287C57 56.8975 57 56.8662 57 56.8349C57 56.8036 57 56.7723 57 56.741C57 56.7096 57 56.6783 57 56.6469C57 56.6155 57 56.5841 57 56.5527C57 56.5212 57 56.4898 57 56.4583C57 56.4268 57 56.3954 57 56.3638C57 56.3323 57 56.3008 57 56.2692C57 56.2377 57 56.2061 57 56.1745C57 56.1429 57 56.1113 57 56.0797C57 56.048 57 56.0164 57 55.9847C57 55.953 57 55.9213 57 55.8896C57 55.8579 57 55.8261 57 55.7944C57 55.7626 57 55.7308 57 55.699C57 55.6672 57 55.6354 57 55.6036C57 55.5718 57 55.5399 57 55.508C57 55.4761 57 55.4443 57 55.4123C57 55.3804 57 55.3485 57 55.3165C57 55.2846 57 55.2526 57 55.2206C57 55.1887 57 55.1566 57 55.1246C57 55.0926 57 55.0606 57 55.0285C57 54.9964 57 54.9644 57 54.9323C57 54.9002 57 54.8681 57 54.8359C57 54.8038 57 54.7717 57 54.7395C57 54.7073 57 54.6752 57 54.643C57 54.6108 57 54.5785 57 54.5463C57 54.5141 57 54.4818 57 54.4496C57 54.4173 57 54.385 57 54.3527C57 54.3204 57 54.2881 57 54.2558C57 54.2235 57 54.1911 57 54.1588C57 54.1264 57 54.094 57 54.0616C57 54.0292 57 53.9968 57 53.9644C57 53.932 57 53.8996 57 53.8671C57 53.8347 57 53.8022 57 53.7697C57 53.7372 57 53.7047 57 53.6722C57 53.6397 57 53.6072 57 53.5747C57 53.5421 57 53.5096 57 53.477C57 53.4444 57 53.4119 57 53.3793C57 53.3467 57 53.3141 57 53.2814C57 53.2488 57 53.2162 57 53.1835C57 53.1509 57 53.1182 57 53.0856C57 53.0529 57 53.0202 57 52.9875C57 52.9548 57 52.9221 57 52.8894C57 52.8566 57 52.8239 57 52.7912C57 52.7584 57 52.7257 57 52.6929C57 52.6601 57 52.6273 57 52.5945C57 52.5617 57 52.5289 57 52.4961C57 52.4633 57 52.4305 57 52.3976C57 52.3648 57 52.3319 57 52.2991C57 52.2662 57 52.2333 57 52.2004C57 52.1675 57 52.1346 57 52.1017C57 52.0688 57 52.0359 57 52.003C57 51.9701 57 51.9371 57 51.9042C57 51.8712 57 51.8383 57 51.8053C57 51.7723 57 51.7394 57 51.7064C57 51.6734 57 51.6404 57 51.6074C57 51.5744 57 51.5414 57 51.5084C57 51.4753 57 51.4423 57 51.4093C57 51.3762 57 51.3432 57 51.3101C57 51.2771 57 51.244 57 51.2109C57 51.1778 57 51.1448 57 51.1117C57 51.0786 57 51.0455 57 51.0124C57 50.9793 57 50.9461 57 50.913C57 50.8799 57 50.8468 57 50.8136C57 50.7805 57 50.7474 57 50.7142C57 50.6811 57 50.6479 57 50.6147C57 50.5816 57 50.5484 57 50.5152C57 50.482 57 50.4489 57 50.4157C57 50.3825 57 50.3493 57 50.3161C57 50.2829 57 50.2497 57 50.2164C57 50.1832 57 50.15 57 50.1168C57 50.0836 57 50.0503 57 50.0171C57 49.9838 57 49.9506 57 49.9174C57 49.8841 57 49.8509 57 49.8176C57 49.7843 57 49.7511 57 49.7178C57 49.6845 57 49.6513 57 49.618C57 49.5847 57 49.5514 57 49.5182C57 49.4849 57 49.4516 57 49.4183C57 49.385 57 49.3517 57 49.3184C57 49.2851 57 49.2518 57 49.2185C57 49.1852 57 49.1519 57 49.1186C57 49.0853 57 49.0519 57 49.0186C57 48.9853 57 48.952 57 48.9187C57 48.8853 57 48.852 57 48.8187C57 48.7854 57 48.752 57 48.7187C57 48.6854 57 48.652 57 48.6187C57 48.5853 57 48.552 57 48.5187C57 48.4853 57 48.452 57 48.4186C57 48.3853 57 48.352 57 48.3186C57 48.2853 57 48.2519 57 48.2186C57 48.1852 57 48.1519 57 48.1185C57 48.0852 57 48.0518 57 48.0185C57 47.9851 57 47.9518 57 47.9184C57 47.8851 57 47.8517 57 47.8184C57 47.785 57 47.7517 57 47.7183C57 47.685 57 47.6516 57 47.6182C57 47.5849 57 47.5515 57 47.5182C57 47.4849 57 47.4515 57 47.4182C57 47.3848 57 47.3515 57 47.3181C57 47.2848 57 47.2514 57 47.2181C57 47.1847 57 47.1514 57 47.1181C57 47.0847 57 47.0514 57 47.0181C57 46.9847 57 46.9514 57 46.9181C57 46.8847 57 46.8514 57 46.8181C57 46.7848 57 46.7514 57 46.7181C57 46.6848 57 46.6515 57 46.6182C57 46.5848 57 46.5515 57 46.5182C57 46.4849 57 46.4516 57 46.4183C57 46.385 57 46.3517 57 46.3184C57 46.2851 57 46.2518 57 46.2186C57 46.1853 57 46.152 57 46.1187C57 46.0854 57 46.0522 57 46.0189C57 45.9856 57 45.9524 57 45.9191C57 45.8858 57 45.8526 57 45.8193C57 45.7861 57 45.7528 57 45.7196C57 45.6864 57 45.6531 57 45.6199C57 45.5867 57 45.5534 57 45.5202C57 45.487 57 45.4538 57 45.4206C57 45.3874 57 45.3542 57 45.321C57 45.2878 57 45.2546 57 45.2214C57 45.1883 57 45.1551 57 45.1219C57 45.0887 57 45.0556 57 45.0224C57 44.9893 57 44.9561 57 44.923C57 44.8898 57 44.8567 57 44.8236C57 44.7905 57 44.7573 57 44.7242C57 44.6911 57 44.658 57 44.6249C57 44.5918 57 44.5587 57 44.5257C57 44.4926 57 44.4595 57 44.4265C57 44.3934 57 44.3603 57 44.3273C57 44.2943 57 44.2612 57 44.2282C57 44.1952 57 44.1621 57 44.1291C57 44.0961 57 44.0631 57 44.0301C57 43.9971 57 43.9642 57 43.9312C57 43.8982 57 43.8653 57 43.8323C57 43.7994 57 43.7664 57 43.7335C57 43.7006 57 43.6676 57 43.6347C57 43.6018 57 43.5689 57 43.536C57 43.5031 57 43.4702 57 43.4374C57 43.4045 57 43.3717 57 43.3388C57 43.306 57 43.2731 57 43.2403C57 43.2075 57 43.1747 57 43.1419C57 43.1091 57 43.0763 57 43.0435C57 43.0107 57 42.9779 57 42.9452C57 42.9124 57 42.8797 57 42.847C57 42.8142 57 42.7815 57 42.7488C57 42.7161 57 42.6834 57 42.6507C57 42.6181 57 42.5854 57 42.5527C57 42.5201 57 42.4875 57 42.4548C57 42.4222 57 42.3896 57 42.357C57 42.3244 57 42.2918 57 42.2592C57 42.2267 57 42.1941 57 42.1616C57 42.129 57 42.0965 57 42.064C57 42.0314 57 41.9989 57 41.9665C57 41.934 57 41.9015 57 41.869C57 41.8366 57 41.8041 57 41.7717C57 41.7393 57 41.7069 57 41.6745C57 41.6421 57 41.6097 57 41.5773C57 41.545 57 41.5126 57 41.4803C57 41.4479 57 41.4156 57 41.3833C57 41.351 57 41.3187 57 41.2865C57 41.2542 57 41.2219 57 41.1897C57 41.1574 57 41.1252 57 41.093C57 41.0608 57 41.0286 57 40.9965C57 40.9643 57 40.9321 57 40.9C57 40.8679 57 40.8357 57 40.8036C57 40.7715 57 40.7394 57 40.7074C57 40.6753 57 40.6433 57 40.6112C57 40.5792 57 40.5472 57 40.5152C57 40.4832 57 40.4512 57 40.4193C57 40.3873 57 40.3554 57 40.3234C57 40.2915 57 40.2596 57 40.2277C57 40.1958 57 40.164 57 40.1321C57 40.1003 57 40.0685 57 40.0367C57 40.0049 57 39.9731 57 39.9413C57 39.9095 57 39.8778 57 39.8461C57 39.8143 57 39.7826 57 39.7509C57 39.7192 57 39.6876 57 39.6559C57 39.6243 57 39.5927 57 39.561C57 39.5294 57 39.4979 57 39.4663C57 39.4347 57 39.4032 57 39.3717C57 39.3401 57 39.3086 57 39.2772C57 39.2457 57 39.2142 57 39.1828C57 39.1513 57 39.1199 57 39.0885C57 39.0571 57 39.0258 57 38.9944C57 38.9631 57 38.9317 57 38.9004C57 38.8691 57 38.8379 57 38.8066C57 38.7753 57 38.7441 57 38.7129C57 38.6817 57 38.6505 57 38.6193C57 38.5881 57 38.557 57 38.5259C57 38.4948 57 38.4637 57 38.4326C57 38.4015 57 38.3705 57 38.3394C57 38.3084 57 38.2774 57 38.2464C57 38.2154 57 38.1845 57 38.1536C57 38.1226 57 38.0917 57 38.0608C57 38.03 57 37.9991 57 37.9683C57 37.9374 57 37.9066 57 37.8758C57 37.8451 57 37.8143 57 37.7836C57 37.7528 57 37.7221 57 37.6915C57 37.6608 57 37.6301 57 37.5995C57 37.5689 57 37.5383 57 37.5077C57 37.4771 57 37.4466 57 37.416C57 37.3855 57 37.355 57 37.3245C57 37.2941 57 37.2636 57 37.2332C57 37.2028 57 37.1724 57 37.142C57 37.1117 57 37.0813 57 37.051C57 37.0207 57 36.9904 57 36.9602C57 36.9299 57 36.8997 57 36.8695C57 36.8393 57 36.8091 57 36.779C57 36.7488 57 36.7187 57 36.6886C57 36.6585 57 36.6285 57 36.5984C57 36.5684 57 36.5384 57 36.5084C57 36.4785 57 36.4485 57 36.4186C57 36.3887 57 36.3588 57 36.3289C57 36.2991 57 36.2692 57 36.2394C57 36.2096 57 36.1799 57 36.1501C57 36.1204 57 36.0907 57 36.061C57 36.0313 57 36.0017 57 35.9721C57 35.9424 57 35.9128 57 35.8833C57 35.8537 57 35.8242 57 35.7947C57 35.7652 57 35.7357 57 35.7063C57 35.6769 57 35.6475 57 35.6181C57 35.5887 57 35.5594 57 35.5301C57 35.5007 57 35.4715 57 35.4422C57 35.413 57 35.3838 57 35.3546C57 35.3254 57 35.2962 57 35.2671C57 35.238 57 35.2089 57 35.1798C57 35.1508 57 35.1218 57 35.0928C57 35.0638 57 35.0348 57 35.0059C57 34.977 57 34.9481 57 34.9192C57 34.8904 57 34.8615 57 34.8328C57 34.804 57 34.7752 57 34.7465C57 34.7178 57 34.6891 57 34.6604C57 34.6317 57 34.6031 57 34.5745C57 34.5459 57 34.5174 57 34.4889C57 34.4603 57 34.4319 57 34.4034C57 34.375 57 34.3465 57 34.3182C57 34.2898 57 34.2614 57 34.2331C57 34.2048 57 34.1765 57 34.1483C57 34.12 57 34.0918 57 34.0637C57 34.0355 57 34.0074 57 33.9793C57 33.9512 57 33.9231 57 33.8951C57 33.867 57 33.8391 57 33.8111C57 33.7831 57 33.7552 57 33.7273C57 33.6995 57 33.6716 57 33.6438C57 33.616 57 33.5882 57 33.5605C57 33.5328 57 33.5051 57 33.4774C57 33.4498 57 33.4221 57 33.3945C57 33.367 57 33.3394 57 33.3119C57 33.2844 57 33.2569 57 33.2295C57 33.2021 57 33.1747 57 33.1473C57 33.1199 57 33.0926 57 33.0654C57 33.0381 57 33.0108 57 32.9836C57 32.9564 57 32.9293 57 32.9021C57 32.875 57 32.8479 57 32.8209C57 32.7938 57 32.7668 57 32.7399C57 32.7129 57 32.686 57 32.6591C57 32.6322 57 32.6053 57 32.5785C57 32.5517 57 32.525 57 32.4982C57 32.4715 57 32.4448 57 32.4182C57 32.3915 57 32.3649 57 32.3383C57 32.3118 57 32.2853 57 32.2588C57 32.2323 57 32.2058 57 32.1794C57 32.153 57 32.1267 57 32.1004C57 32.074 57 32.0478 57 32.0215C57 31.9953 57 31.9691 57 31.943C57 31.9168 57 31.8907 57 31.8646C57 31.8386 57 31.8125 57 31.7865C57 31.7606 57 31.7346 57 31.7087C57 31.6828 57 31.657 57 31.6312C57 31.6054 57 31.5796 57 31.5539C57 31.5281 57 31.5025 57 31.4768C57 31.4512 57 31.4256 57 31.4C57 31.3745 57 31.349 57 31.3235C57 31.298 57 31.2726 57 31.2472C57 31.2219 57 31.1965 57 31.1713C57 31.146 57 31.1207 57 31.0955C57 31.0703 57 31.0452 57 31.0201C57 30.995 57 30.9699 57 30.9449C57 30.9199 57 30.8949 57 30.87C57 30.845 57 30.8202 57 30.7953C57 30.7705 57 30.7457 57 30.7209C57 30.6962 57 30.6715 57 30.6468C57 30.6222 57 30.5976 57 30.573C57 30.5485 57 30.524 57 30.4995C57 30.475 57 30.4506 57 30.4262C57 30.4019 57 30.3775 57 30.3533C57 30.329 57 30.3047 57 30.2806C57 30.2564 57 30.2322 57 30.2081C57 30.1841 57 30.16 57 30.136C57 30.112 57 30.0881 57 30.0642C57 30.0403 57 30.0164 57 29.9926C57 29.9688 57 29.9451 57 29.9214C57 29.8977 57 29.874 57 29.8504C57 29.8268 57 29.8032 57 29.7797C57 29.7562 57 29.7328 57 29.7094C57 29.6859 57 29.6626 57 29.6393C57 29.616 57 29.5927 57 29.5695C57 29.5463 57 29.5231 57 29.5H53C53 29.5231 53 29.5463 53 29.5695C53 29.5927 53 29.616 53 29.6393C53 29.6626 53 29.6859 53 29.7094C53 29.7328 53 29.7562 53 29.7797C53 29.8032 53 29.8268 53 29.8504C53 29.874 53 29.8977 53 29.9214C53 29.9451 53 29.9688 53 29.9926C53 30.0164 53 30.0403 53 30.0642C53 30.0881 53 30.112 53 30.136C53 30.16 53 30.1841 53 30.2081C53 30.2322 53 30.2564 53 30.2806C53 30.3047 53 30.329 53 30.3533C53 30.3775 53 30.4019 53 30.4262C53 30.4506 53 30.475 53 30.4995C53 30.524 53 30.5485 53 30.573C53 30.5976 53 30.6222 53 30.6468C53 30.6715 53 30.6962 53 30.7209C53 30.7457 53 30.7705 53 30.7953C53 30.8202 53 30.845 53 30.87C53 30.8949 53 30.9199 53 30.9449C53 30.9699 53 30.995 53 31.0201C53 31.0452 53 31.0703 53 31.0955C53 31.1207 53 31.146 53 31.1713C53 31.1965 53 31.2219 53 31.2472C53 31.2726 53 31.298 53 31.3235C53 31.349 53 31.3745 53 31.4C53 31.4256 53 31.4512 53 31.4768C53 31.5025 53 31.5281 53 31.5539C53 31.5796 53 31.6054 53 31.6312C53 31.657 53 31.6828 53 31.7087C53 31.7346 53 31.7606 53 31.7865C53 31.8125 53 31.8386 53 31.8646C53 31.8907 53 31.9168 53 31.943C53 31.9691 53 31.9953 53 32.0215C53 32.0478 53 32.074 53 32.1004C53 32.1267 53 32.153 53 32.1794C53 32.2058 53 32.2323 53 32.2588C53 32.2853 53 32.3118 53 32.3383C53 32.3649 53 32.3915 53 32.4182C53 32.4448 53 32.4715 53 32.4982C53 32.525 53 32.5517 53 32.5785C53 32.6053 53 32.6322 53 32.6591C53 32.686 53 32.7129 53 32.7399C53 32.7668 53 32.7938 53 32.8209C53 32.8479 53 32.875 53 32.9021C53 32.9293 53 32.9564 53 32.9836C53 33.0108 53 33.0381 53 33.0654C53 33.0926 53 33.1199 53 33.1473C53 33.1747 53 33.2021 53 33.2295C53 33.2569 53 33.2844 53 33.3119C53 33.3394 53 33.367 53 33.3945C53 33.4221 53 33.4498 53 33.4774C53 33.5051 53 33.5328 53 33.5605C53 33.5882 53 33.616 53 33.6438C53 33.6716 53 33.6995 53 33.7273C53 33.7552 53 33.7831 53 33.8111C53 33.8391 53 33.867 53 33.8951C53 33.9231 53 33.9512 53 33.9793C53 34.0074 53 34.0355 53 34.0637C53 34.0918 53 34.12 53 34.1483C53 34.1765 53 34.2048 53 34.2331C53 34.2614 53 34.2898 53 34.3182C53 34.3465 53 34.375 53 34.4034C53 34.4319 53 34.4603 53 34.4889C53 34.5174 53 34.5459 53 34.5745C53 34.6031 53 34.6317 53 34.6604C53 34.6891 53 34.7178 53 34.7465C53 34.7752 53 34.804 53 34.8328C53 34.8615 53 34.8904 53 34.9192C53 34.9481 53 34.977 53 35.0059C53 35.0348 53 35.0638 53 35.0928C53 35.1218 53 35.1508 53 35.1798C53 35.2089 53 35.238 53 35.2671C53 35.2962 53 35.3254 53 35.3546C53 35.3838 53 35.413 53 35.4422C53 35.4715 53 35.5007 53 35.5301C53 35.5594 53 35.5887 53 35.6181C53 35.6475 53 35.6769 53 35.7063C53 35.7357 53 35.7652 53 35.7947C53 35.8242 53 35.8537 53 35.8833C53 35.9128 53 35.9424 53 35.9721C53 36.0017 53 36.0313 53 36.061C53 36.0907 53 36.1204 53 36.1501C53 36.1799 53 36.2096 53 36.2394C53 36.2692 53 36.2991 53 36.3289C53 36.3588 53 36.3887 53 36.4186C53 36.4485 53 36.4785 53 36.5084C53 36.5384 53 36.5684 53 36.5984C53 36.6285 53 36.6585 53 36.6886C53 36.7187 53 36.7488 53 36.779C53 36.8091 53 36.8393 53 36.8695C53 36.8997 53 36.9299 53 36.9602C53 36.9904 53 37.0207 53 37.051C53 37.0813 53 37.1117 53 37.142C53 37.1724 53 37.2028 53 37.2332C53 37.2636 53 37.2941 53 37.3245C53 37.355 53 37.3855 53 37.416C53 37.4466 53 37.4771 53 37.5077C53 37.5383 53 37.5689 53 37.5995C53 37.6301 53 37.6608 53 37.6915C53 37.7221 53 37.7528 53 37.7836C53 37.8143 53 37.8451 53 37.8758C53 37.9066 53 37.9374 53 37.9683C53 37.9991 53 38.03 53 38.0608C53 38.0917 53 38.1226 53 38.1536C53 38.1845 53 38.2154 53 38.2464C53 38.2774 53 38.3084 53 38.3394C53 38.3705 53 38.4015 53 38.4326C53 38.4637 53 38.4948 53 38.5259C53 38.557 53 38.5881 53 38.6193C53 38.6505 53 38.6817 53 38.7129C53 38.7441 53 38.7753 53 38.8066C53 38.8379 53 38.8691 53 38.9004C53 38.9317 53 38.9631 53 38.9944C53 39.0258 53 39.0571 53 39.0885C53 39.1199 53 39.1513 53 39.1828C53 39.2142 53 39.2457 53 39.2772C53 39.3086 53 39.3401 53 39.3717C53 39.4032 53 39.4347 53 39.4663C53 39.4979 53 39.5294 53 39.561C53 39.5927 53 39.6243 53 39.6559C53 39.6876 53 39.7192 53 39.7509C53 39.7826 53 39.8143 53 39.8461C53 39.8778 53 39.9095 53 39.9413C53 39.9731 53 40.0049 53 40.0367C53 40.0685 53 40.1003 53 40.1321C53 40.164 53 40.1958 53 40.2277C53 40.2596 53 40.2915 53 40.3234C53 40.3554 53 40.3873 53 40.4193C53 40.4512 53 40.4832 53 40.5152C53 40.5472 53 40.5792 53 40.6112C53 40.6433 53 40.6753 53 40.7074C53 40.7394 53 40.7715 53 40.8036C53 40.8357 53 40.8679 53 40.9C53 40.9321 53 40.9643 53 40.9965C53 41.0286 53 41.0608 53 41.093C53 41.1252 53 41.1574 53 41.1897C53 41.2219 53 41.2542 53 41.2865C53 41.3187 53 41.351 53 41.3833C53 41.4156 53 41.4479 53 41.4803C53 41.5126 53 41.545 53 41.5773C53 41.6097 53 41.6421 53 41.6745C53 41.7069 53 41.7393 53 41.7717C53 41.8041 53 41.8366 53 41.869C53 41.9015 53 41.934 53 41.9665C53 41.9989 53 42.0314 53 42.064C53 42.0965 53 42.129 53 42.1616C53 42.1941 53 42.2267 53 42.2592C53 42.2918 53 42.3244 53 42.357C53 42.3896 53 42.4222 53 42.4548C53 42.4875 53 42.5201 53 42.5527C53 42.5854 53 42.6181 53 42.6507C53 42.6834 53 42.7161 53 42.7488C53 42.7815 53 42.8142 53 42.847C53 42.8797 53 42.9124 53 42.9452C53 42.9779 53 43.0107 53 43.0435C53 43.0763 53 43.1091 53 43.1419C53 43.1747 53 43.2075 53 43.2403C53 43.2731 53 43.306 53 43.3388C53 43.3717 53 43.4045 53 43.4374C53 43.4702 53 43.5031 53 43.536C53 43.5689 53 43.6018 53 43.6347C53 43.6676 53 43.7006 53 43.7335C53 43.7664 53 43.7994 53 43.8323C53 43.8653 53 43.8982 53 43.9312C53 43.9642 53 43.9971 53 44.0301C53 44.0631 53 44.0961 53 44.1291C53 44.1621 53 44.1952 53 44.2282C53 44.2612 53 44.2943 53 44.3273C53 44.3603 53 44.3934 53 44.4265C53 44.4595 53 44.4926 53 44.5257C53 44.5587 53 44.5918 53 44.6249C53 44.658 53 44.6911 53 44.7242C53 44.7573 53 44.7905 53 44.8236C53 44.8567 53 44.8898 53 44.923C53 44.9561 53 44.9893 53 45.0224C53 45.0556 53 45.0887 53 45.1219C53 45.1551 53 45.1883 53 45.2214C53 45.2546 53 45.2878 53 45.321C53 45.3542 53 45.3874 53 45.4206C53 45.4538 53 45.487 53 45.5202C53 45.5534 53 45.5867 53 45.6199C53 45.6531 53 45.6864 53 45.7196C53 45.7528 53 45.7861 53 45.8193C53 45.8526 53 45.8858 53 45.9191C53 45.9524 53 45.9856 53 46.0189C53 46.0522 53 46.0854 53 46.1187C53 46.152 53 46.1853 53 46.2186C53 46.2518 53 46.2851 53 46.3184C53 46.3517 53 46.385 53 46.4183C53 46.4516 53 46.4849 53 46.5182C53 46.5515 53 46.5848 53 46.6182C53 46.6515 53 46.6848 53 46.7181C53 46.7514 53 46.7848 53 46.8181C53 46.8514 53 46.8847 53 46.9181C53 46.9514 53 46.9847 53 47.0181C53 47.0514 53 47.0847 53 47.1181C53 47.1514 53 47.1847 53 47.2181C53 47.2514 53 47.2848 53 47.3181C53 47.3515 53 47.3848 53 47.4182C53 47.4515 53 47.4849 53 47.5182C53 47.5515 53 47.5849 53 47.6182C53 47.6516 53 47.685 53 47.7183C53 47.7517 53 47.785 53 47.8184C53 47.8517 53 47.8851 53 47.9184C53 47.9518 53 47.9851 53 48.0185C53 48.0518 53 48.0852 53 48.1185C53 48.1519 53 48.1852 53 48.2186C53 48.2519 53 48.2853 53 48.3186C53 48.352 53 48.3853 53 48.4186C53 48.452 53 48.4853 53 48.5187C53 48.552 53 48.5853 53 48.6187C53 48.652 53 48.6854 53 48.7187C53 48.752 53 48.7854 53 48.8187C53 48.852 53 48.8853 53 48.9187C53 48.952 53 48.9853 53 49.0186C53 49.0519 53 49.0853 53 49.1186C53 49.1519 53 49.1852 53 49.2185C53 49.2518 53 49.2851 53 49.3184C53 49.3517 53 49.385 53 49.4183C53 49.4516 53 49.4849 53 49.5182C53 49.5514 53 49.5847 53 49.618C53 49.6513 53 49.6845 53 49.7178C53 49.7511 53 49.7843 53 49.8176C53 49.8509 53 49.8841 53 49.9174C53 49.9506 53 49.9838 53 50.0171C53 50.0503 53 50.0836 53 50.1168C53 50.15 53 50.1832 53 50.2164C53 50.2497 53 50.2829 53 50.3161C53 50.3493 53 50.3825 53 50.4157C53 50.4489 53 50.482 53 50.5152C53 50.5484 53 50.5816 53 50.6147C53 50.6479 53 50.6811 53 50.7142C53 50.7474 53 50.7805 53 50.8136C53 50.8468 53 50.8799 53 50.913C53 50.9461 53 50.9793 53 51.0124C53 51.0455 53 51.0786 53 51.1117C53 51.1448 53 51.1778 53 51.2109C53 51.244 53 51.2771 53 51.3101C53 51.3432 53 51.3762 53 51.4093C53 51.4423 53 51.4753 53 51.5084C53 51.5414 53 51.5744 53 51.6074C53 51.6404 53 51.6734 53 51.7064C53 51.7394 53 51.7723 53 51.8053C53 51.8383 53 51.8712 53 51.9042C53 51.9371 53 51.9701 53 52.003C53 52.0359 53 52.0688 53 52.1017C53 52.1346 53 52.1675 53 52.2004C53 52.2333 53 52.2662 53 52.2991C53 52.3319 53 52.3648 53 52.3976C53 52.4305 53 52.4633 53 52.4961C53 52.5289 53 52.5617 53 52.5945C53 52.6273 53 52.6601 53 52.6929C53 52.7257 53 52.7584 53 52.7912C53 52.8239 53 52.8566 53 52.8894C53 52.9221 53 52.9548 53 52.9875C53 53.0202 53 53.0529 53 53.0856C53 53.1182 53 53.1509 53 53.1835C53 53.2162 53 53.2488 53 53.2814C53 53.3141 53 53.3467 53 53.3793C53 53.4119 53 53.4444 53 53.477C53 53.5096 53 53.5421 53 53.5747C53 53.6072 53 53.6397 53 53.6722C53 53.7047 53 53.7372 53 53.7697C53 53.8022 53 53.8347 53 53.8671C53 53.8996 53 53.932 53 53.9644C53 53.9968 53 54.0292 53 54.0616C53 54.094 53 54.1264 53 54.1588C53 54.1911 53 54.2235 53 54.2558C53 54.2881 53 54.3204 53 54.3527C53 54.385 53 54.4173 53 54.4496C53 54.4818 53 54.5141 53 54.5463C53 54.5785 53 54.6108 53 54.643C53 54.6752 53 54.7073 53 54.7395C53 54.7717 53 54.8038 53 54.8359C53 54.8681 53 54.9002 53 54.9323C53 54.9644 53 54.9964 53 55.0285C53 55.0606 53 55.0926 53 55.1246C53 55.1566 53 55.1887 53 55.2206C53 55.2526 53 55.2846 53 55.3165C53 55.3485 53 55.3804 53 55.4123C53 55.4443 53 55.4761 53 55.508C53 55.5399 53 55.5718 53 55.6036C53 55.6354 53 55.6672 53 55.699C53 55.7308 53 55.7626 53 55.7944C53 55.8261 53 55.8579 53 55.8896C53 55.9213 53 55.953 53 55.9847C53 56.0164 53 56.048 53 56.0797C53 56.1113 53 56.1429 53 56.1745C53 56.2061 53 56.2377 53 56.2692C53 56.3008 53 56.3323 53 56.3638C53 56.3954 53 56.4268 53 56.4583C53 56.4898 53 56.5212 53 56.5527C53 56.5841 53 56.6155 53 56.6469C53 56.6783 53 56.7096 53 56.741C53 56.7723 53 56.8036 53 56.8349C53 56.8662 53 56.8975 53 56.9287C53 56.96 53 56.9912 53 57.0224C53 57.0536 53 57.0848 53 57.1159C53 57.1471 53 57.1782 53 57.2093C53 57.2405 53 57.2715 53 57.3026C53 57.3337 53 57.3647 53 57.3957C53 57.4267 53 57.4577 53 57.4887C53 57.5197 53 57.5506 53 57.5815C53 57.6125 53 57.6433 53 57.6742C53 57.7051 53 57.7359 53 57.7668C53 57.7976 53 57.8284 53 57.8591C53 57.8899 53 57.9207 53 57.9514C53 57.9821 53 58.0128 53 58.0435C53 58.0741 53 58.1048 53 58.1354C53 58.166 53 58.1966 53 58.2272C53 58.2577 53 58.2883 53 58.3188C53 58.3493 53 58.3798 53 58.4102C53 58.4407 53 58.4711 53 58.5015C53 58.5319 53 58.5623 53 58.5927C53 58.623 53 58.6534 53 58.6837C53 58.714 53 58.7442 53 58.7745C53 58.8047 53 58.8349 53 58.8651C53 58.8953 53 58.9255 53 58.9556C53 58.9857 53 59.0158 53 59.0459C53 59.076 53 59.106 53 59.136C53 59.1661 53 59.196 53 59.226C53 59.256 53 59.2859 53 59.3158C53 59.3457 53 59.3756 53 59.4054C53 59.4353 53 59.4651 53 59.4949C53 59.5247 53 59.5544 53 59.5841C53 59.6139 53 59.6436 53 59.6732C53 59.7029 53 59.7325 53 59.7621C53 59.7917 53 59.8213 53 59.8509C53 59.8804 53 59.9099 53 59.9394C53 59.9689 53 59.9983 53 60.0278C53 60.0572 53 60.0866 53 60.1159C53 60.1453 53 60.1746 53 60.2039C53 60.2332 53 60.2625 53 60.2917C53 60.3209 53 60.3502 53 60.3793C53 60.4085 53 60.4376 53 60.4667C53 60.4958 53 60.5249 53 60.554C53 60.583 53 60.612 53 60.641C53 60.67 53 60.6989 53 60.7278C53 60.7567 53 60.7856 53 60.8144C53 60.8433 53 60.8721 53 60.9009C53 60.9296 53 60.9584 53 60.9871C53 61.0158 53 61.0445 53 61.0731C53 61.1018 53 61.1304 53 61.1589C53 61.1875 53 61.2161 53 61.2446C53 61.2731 53 61.3015 53 61.33C53 61.3584 53 61.3868 53 61.4152C53 61.4435 53 61.4719 53 61.5002C53 61.5285 53 61.5567 53 61.5849C53 61.6132 53 61.6414 53 61.6695C53 61.6977 53 61.7258 53 61.7539C53 61.782 53 61.81 53 61.838C53 61.866 53 61.894 53 61.9219C53 61.9499 53 61.9778 53 62.0056C53 62.0335 53 62.0613 53 62.0891C53 62.1169 53 62.1447 53 62.1724C53 62.2001 53 62.2278 53 62.2554C53 62.2831 53 62.3107 53 62.3382C53 62.3658 53 62.3933 53 62.4208C53 62.4483 53 62.4758 53 62.5032C53 62.5306 53 62.558 53 62.5853C53 62.6127 53 62.64 53 62.6672C53 62.6945 53 62.7217 53 62.7489C53 62.7761 53 62.8032 53 62.8303C53 62.8574 53 62.8845 53 62.9115C53 62.9386 53 62.9655 53 62.9925C53 63.0194 53 63.0464 53 63.0732C53 63.1001 53 63.1269 53 63.1537C53 63.1805 53 63.2073 53 63.234C53 63.2607 53 63.2873 53 63.314C53 63.3406 53 63.3672 53 63.3937C53 63.4203 53 63.4468 53 63.4732C53 63.4997 53 63.5261 53 63.5525C53 63.5789 53 63.6052 53 63.6315C53 63.6578 53 63.6841 53 63.7103C53 63.7365 53 63.7627 53 63.7888C53 63.815 53 63.8411 53 63.8671C53 63.8932 53 63.9192 53 63.9451C53 63.9711 53 63.997 53 64.0229C53 64.0488 53 64.0746 53 64.1004C53 64.1262 53 64.1519 53 64.1776C53 64.2033 53 64.229 53 64.2546C53 64.2802 53 64.3058 53 64.3314C53 64.3569 53 64.3824 53 64.4078C53 64.4333 53 64.4587 53 64.484C53 64.5094 53 64.5347 53 64.5599C53 64.5852 53 64.6104 53 64.6356C53 64.6608 53 64.6859 53 64.711C53 64.7361 53 64.7611 53 64.7861C53 64.8111 53 64.8361 53 64.861C53 64.8859 53 64.9108 53 64.9356C53 64.9604 53 64.9852 53 65.0099C53 65.0346 53 65.0593 53 65.0839C53 65.1085 53 65.1331 53 65.1577C53 65.1822 53 65.2067 53 65.2311C53 65.2556 53 65.28 53 65.3043C53 65.3287 53 65.353 53 65.3772C53 65.4015 53 65.4257 53 65.4499C53 65.474 53 65.4982 53 65.5222C53 65.5463 53 65.5703 53 65.5943C53 65.6183 53 65.6422 53 65.6661C53 65.6899 53 65.7138 53 65.7375C53 65.7613 53 65.785 53 65.8087C53 65.8324 53 65.856 53 65.8796C53 65.9032 53 65.9267 53 65.9502C53 65.9737 53 65.9972 53 66.0205C53 66.0439 53 66.0673 53 66.0906C53 66.1138 53 66.1371 53 66.1603C53 66.1835 53 66.2066 53 66.2297C53 66.2528 53 66.2758 53 66.2988C53 66.3218 53 66.3447 53 66.3676C53 66.3905 53 66.4133 53 66.4361C53 66.4589 53 66.4817 53 66.5043C53 66.527 53 66.5497 53 66.5722C53 66.5948 53 66.6173 53 66.6398C53 66.6623 53 66.6847 53 66.7071C53 66.7295 53 66.7518 53 66.7741C53 66.7963 53 66.8186 53 66.8407C53 66.8629 53 66.885 53 66.9071C53 66.9291 53 66.9511 53 66.9731C53 66.9951 53 67.017 53 67.0388C53 67.0607 53 67.0825 53 67.1042C53 67.1259 53 67.1476 53 67.1693C53 67.1909 53 67.2125 53 67.234C53 67.2555 53 67.277 53 67.2984C53 67.3199 53 67.3412 53 67.3625C53 67.3839 53 67.4051 53 67.4263C53 67.4475 53 67.4687 53 67.4898C53 67.5109 53 67.5319 53 67.5529C53 67.5739 53 67.5948 53 67.6157C53 67.6365 53 67.6574 53 67.6781C53 67.6989 53 67.7196 53 67.7402C53 67.7609 53 67.7815 53 67.802C53 67.8226 53 67.8431 53 67.8635C53 67.8839 53 67.9043 53 67.9246C53 67.9449 53 67.9652 53 67.9854C53 68.0056 53 68.0257 53 68.0458C53 68.0659 53 68.0859 53 68.1059C53 68.1259 53 68.1458 53 68.1657C53 68.1855 53 68.2053 53 68.2251C53 68.2448 53 68.2645 53 68.2841C53 68.3037 53 68.3233 53 68.3428C53 68.3623 53 68.3818 53 68.4012C53 68.4206 53 68.4399 53 68.4592C53 68.4785 53 68.4977 53 68.5169C53 68.536 53 68.5551 53 68.5742C53 68.5932 53 68.6122 53 68.6311C53 68.65 53 68.6689 53 68.6877C53 68.7065 53 68.7252 53 68.7439C53 68.7626 53 68.7812 53 68.7998C53 68.8184 53 68.8369 53 68.8553C53 68.8738 53 68.8921 53 68.9105C53 68.9288 53 68.947 53 68.9652C53 68.9834 53 69.0016 53 69.0197C53 69.0377 53 69.0558 53 69.0737C53 69.0917 53 69.1096 53 69.1274C53 69.1452 53 69.163 53 69.1807C53 69.1984 53 69.2161 53 69.2337C53 69.2512 53 69.2688 53 69.2862C53 69.3037 53 69.3211 53 69.3384C53 69.3558 53 69.373 53 69.3902C53 69.4074 53 69.4246 53 69.4417C53 69.4588 53 69.4758 53 69.4927C53 69.5097 53 69.5266 53 69.5434C53 69.5602 53 69.577 53 69.5937C53 69.6104 53 69.6271 53 69.6436C53 69.6602 53 69.6767 53 69.6932C53 69.7096 53 69.726 53 69.7423C53 69.7586 53 69.7749 53 69.7911C53 69.8073 53 69.8234 53 69.8394C53 69.8555 53 69.8715 53 69.8874C53 69.9033 53 69.9192 53 69.935C53 69.9508 53 69.9665 53 69.9822C53 69.9979 53 70.0135 53 70.029C53 70.0445 53 70.06 53 70.0754C53 70.0908 53 70.1061 53 70.1214C53 70.1367 53 70.1519 53 70.167C53 70.1821 53 70.1972 53 70.2122C53 70.2272 53 70.2421 53 70.257C53 70.2719 53 70.2867 53 70.3014C53 70.3161 53 70.3308 53 70.3454C53 70.36 53 70.3745 53 70.389C53 70.4034 53 70.4178 53 70.4321C53 70.4465 53 70.4607 53 70.4749C53 70.4891 53 70.5032 53 70.5173C53 70.5313 53 70.5453 53 70.5592C53 70.5731 53 70.587 53 70.6007C53 70.6145 53 70.6282 53 70.6418C53 70.6555 53 70.669 53 70.6825C53 70.696 53 70.7095 53 70.7228C53 70.7362 53 70.7495 53 70.7627C53 70.7759 53 70.789 53 70.8021C53 70.8152 53 70.8282 53 70.8411C53 70.854 53 70.8669 53 70.8797C53 70.8925 53 70.9052 53 70.9179C53 70.9305 53 70.9431 53 70.9556C53 70.9681 53 70.9805 53 70.9929C53 71.0053 53 71.0176 53 71.0298C53 71.042 53 71.0541 53 71.0662C53 71.0783 53 71.0903 53 71.1022C53 71.1142 53 71.126 53 71.1378C53 71.1496 53 71.1613 53 71.1729C53 71.1846 53 71.1961 53 71.2076C53 71.2191 53 71.2306 53 71.2419C53 71.2532 53 71.2645 53 71.2757C53 71.2869 53 71.298 53 71.3091C53 71.3201 53 71.3311 53 71.342C53 71.3529 53 71.3638 53 71.3745C53 71.3853 53 71.396 53 71.4066C53 71.4172 53 71.4277 53 71.4382C53 71.4486 53 71.459 53 71.4693C53 71.4796 53 71.4898 53 71.5H57ZM54.896 27.5027L6.89597 30.0027L7.10403 33.9973L55.104 31.4973L54.896 27.5027Z" fill="black"/>
<path id="heel" d="M4.49999 105C-1.50001 98.2 5.66667 83.1667 10 77.5C14.1667 79 24.1 84.3 28.5 91.5C32.9 98.7 31.3333 112.667 29.5 118C24.1667 116.5 10.5 111.8 4.49999 105Z" stroke="black" stroke-width="4"/>
<path id="band" d="M17 2L18.5 31.5221M28.5 2.5L29.5 31M40.5 2.5V30.5M5 2L7.04082 32L55 30V2H5Z" stroke="black" stroke-width="4"/>
</g>
</svg>
