<svg width="96" height="161" xmlns="http://www.w3.org/2000/svg" fill="none">

 <g>
  <title>Layer 1</title>
  <g id="sock">
   <path stroke-width="4" stroke="black" d="m74,136c7.1226,-5.698 14.3333,-7 18.5,-5.5c1,3.833 2.4145,14.591 -5.9855,22.591c-10.5,10 -22.577,3.409 -22.5145,1.909c0.5,-12 5,-15 10,-19z" id="point"/>
   <path fill="black" d="m7,32l-0.10403,-1.9973l-2.02653,0.1056l0.13499,2.0247l1.99557,-0.133zm3,45l-1.99557,0.133l0.07429,1.1145l0.98776,0.5213l0.93352,-1.7688zm19.5,41l-1.9715,-0.337l-0.0285,0.167l0,0.17l2,0zm34.5,37l-1.454,1.373l3.4324,-1.08l-1.9784,-0.293zm9,-19l-1.2919,-1.527l-0.0635,0.054l-0.0588,0.059l1.4142,1.414zm19.5,-5.5l0.8944,-1.789l-0.1544,-0.077l-0.1653,-0.05l-0.5747,1.916zm-34.5,-45l-1.857,0.7428l0.1055,0.2636l0.1747,0.2239l1.5768,-1.2303zm-3,-56l2,0l0,-2.1069l-2.104,0.1096l0.104,1.9973zm-49.99557,2.633l3,45l3.99117,-0.266l-3.00003,-45l-3.99114,0.266zm4.06205,46.6358c2.95272,1.5584 7.06072,3.9326 10.55392,6.4838c1.7487,1.2771 3.2953,2.564 4.4572,3.7824c1.2024,1.2608 1.8098,2.2609 1.9821,2.9501l3.8806,-0.9702c-0.4277,-1.7108 -1.6203,-3.3274 -2.9679,-4.7405c-1.3881,-1.4556 -3.1415,-2.9 -4.9928,-4.252c-3.7068,-2.7072 -7.9988,-5.1829 -11.0461,-6.7912l-1.86702,3.5376zm16.99322,13.2163c0.4188,1.675 0.9859,2.9494 1.4532,4.0723c0.4664,1.121 0.8728,2.1736 1.1468,3.6259c0.5572,2.9537 0.6083,7.7917 -1.1312,17.9797l3.943,0.674c1.7605,-10.312 1.8116,-15.724 1.1188,-19.3953c-0.351,-1.8602 -0.8821,-3.2138 -1.3844,-4.421c-0.5015,-1.2052 -0.9344,-2.1808 -1.2656,-3.5058l-3.8806,0.9702zm1.4403,26.0149c0,0.473 0.1739,0.821 0.1899,0.855c0.0514,0.111 0.1029,0.196 0.1299,0.24c0.057,0.091 0.1143,0.169 0.1496,0.216c0.0767,0.102 0.1696,0.215 0.2628,0.326c0.1919,0.228 0.4622,0.536 0.7934,0.907c0.6663,0.747 1.6241,1.797 2.8003,3.074c2.3545,2.556 5.609,6.048 9.214,9.899c7.2113,7.703 15.8386,16.855 21.5061,22.856l2.908,-2.746c-5.6659,-5.999 -14.2885,-15.147 -21.4939,-22.844c-3.6033,-3.849 -6.8489,-7.332 -9.1922,-9.876c-1.1728,-1.273 -2.1135,-2.304 -2.7584,-3.026c-0.3243,-0.364 -0.5629,-0.637 -0.7158,-0.819c-0.0793,-0.094 -0.1178,-0.143 -0.1295,-0.158c-0.0089,-0.012 0.0151,0.018 0.0497,0.074c0.0158,0.025 0.0589,0.096 0.1047,0.194c0.0104,0.023 0.1814,0.361 0.1814,0.828l-4,0zm38.4784,37.293c0.1796,-1.212 0.2154,-2.548 0.2969,-3.6c0.0875,-1.13 0.2372,-2.263 0.6339,-3.535c0.7888,-2.527 2.6449,-5.884 7.505,-10.744l-2.8284,-2.828c-5.1399,5.14 -7.4504,9.033 -8.495,12.381c-0.52,1.666 -0.7036,3.126 -0.8036,4.418c-0.106,1.37 -0.1118,2.284 -0.2656,3.322l3.9568,0.586zm8.3135,-17.766c6.0892,-5.153 13.4035,-6.38 17.6334,-5.111l1.1494,-3.832c-5.7701,-1.731 -14.4558,0.042 -21.3666,5.889l2.5838,3.054zm17.3137,-5.238c0.053,0.026 0.5716,0.307 1.2617,0.183c0.4448,-0.079 0.9104,-0.321 1.2449,-0.763c0.3003,-0.396 0.378,-0.799 0.3992,-1.029c0.0383,-0.414 -0.0655,-0.734 -0.0867,-0.802c-0.0383,-0.121 -0.0807,-0.217 -0.1053,-0.27c-0.0857,-0.185 -0.1989,-0.363 -0.2635,-0.464c-0.1606,-0.249 -0.4031,-0.596 -0.6995,-1.008c-0.602,-0.838 -1.5105,-2.06 -2.6483,-3.569c-2.279,-3.024 -5.5125,-7.247 -9.1363,-11.95c-7.2493,-9.409 -16.077,-20.7623 -21.995,-28.3473l-3.1536,2.4606c5.9153,7.5816 14.7376,18.9277 21.98,28.3277c3.622,4.701 6.8448,8.91 9.1106,11.916c1.1346,1.506 2.0206,2.698 2.595,3.497c0.2919,0.406 0.483,0.682 0.584,0.839c0.0663,0.103 0.0409,0.073 -0.0022,-0.02c-0.014,-0.03 -0.0485,-0.106 -0.0818,-0.212c-0.0163,-0.052 -0.118,-0.359 -0.0805,-0.765c0.0208,-0.226 0.0974,-0.626 0.3958,-1.019c0.3327,-0.439 0.7958,-0.68 1.2372,-0.759c0.6836,-0.122 1.1926,0.156 1.2331,0.176l-1.7888,3.578zm-31.7486,-47.5318c-0.9641,-2.4101 -2.857,-8.4322 -2.857,-13.2572l-4,0c0,5.575 2.1071,12.1529 3.143,14.7428l3.714,-1.4856zm-2.857,-13.2572c0,-0.0102 0,-0.0204 0,-0.0307c0,-0.0103 0,-0.0207 0,-0.0311c0,-0.0105 0,-0.021 0,-0.0316c0,-0.0106 0,-0.0213 0,-0.0321c0,-0.0107 0,-0.0216 0,-0.0325c0,-0.0109 0,-0.0219 0,-0.0329c0,-0.0111 0,-0.0222 0,-0.0334c0,-0.0112 0,-0.0225 0,-0.0338c0,-0.0113 0,-0.0228 0,-0.0343c0,-0.0115 0,-0.023 0,-0.0347c0,-0.0116 0,-0.0233 0,-0.0351c0,-0.0118 0,-0.0236 0,-0.0356c0,-0.0119 0,-0.0239 0,-0.036c0,-0.0121 0,-0.0242 0,-0.0364c0,-0.0122 0,-0.0245 0,-0.0369c0,-0.0124 0,-0.0248 0,-0.0373c0,-0.0125 0,-0.0251 0,-0.0377c0,-0.0127 0,-0.0254 0,-0.0382c0,-0.0128 0,-0.0257 0,-0.0386c0,-0.0129 0,-0.0259 0,-0.039c0,-0.0131 0,-0.0262 0,-0.0394c0,-0.0132 0,-0.0265 0,-0.0399c0,-0.0133 0,-0.0268 0,-0.0403c0,-0.0135 0,-0.027 0,-0.0407c0,-0.0136 0,-0.0273 0,-0.0411c0,-0.0137 0,-0.0276 0,-0.0415c0,-0.0139 0,-0.0279 0,-0.0419c0,-0.0141 0,-0.0282 0,-0.0424c0,-0.0142 0,-0.0284 0,-0.0428c0,-0.0143 0,-0.0287 0,-0.0431c0,-0.0145 0,-0.029 0,-0.0436c0,-0.0146 0,-0.0293 0,-0.044c0,-0.0147 0,-0.0295 0,-0.0444c0,-0.0149 0,-0.0298 0,-0.0448c0,-0.015 0,-0.0301 0,-0.0452c0,-0.0151 0,-0.0303 0,-0.0456c0,-0.0153 0,-0.0306 0,-0.046c0,-0.0154 0,-0.0309 0,-0.0464c0,-0.0155 0,-0.0311 0,-0.0468c0,-0.0157 0,-0.0314 0,-0.0472c0,-0.0158 0,-0.0317 0,-0.0476c0,-0.0159 0,-0.0319 0,-0.048c0,-0.016 0,-0.0321 0,-0.0483c0,-0.0162 0,-0.0325 0,-0.0488c0,-0.0163 0,-0.0327 0,-0.0491c0,-0.0165 0,-0.033 0,-0.0496c0,-0.0165 0,-0.0332 0,-0.0499c0,-0.0167 0,-0.0335 0,-0.0503c0,-0.0168 0,-0.0337 0,-0.0507c0,-0.0169 0,-0.0339 0,-0.051c0,-0.0171 0,-0.0343 0,-0.0515c0,-0.0172 0,-0.0344 0,-0.0518c0,-0.0173 0,-0.0347 0,-0.0522c0,-0.0174 0,-0.035 0,-0.0525c0,-0.0176 0,-0.0353 0,-0.053c0,-0.0177 0,-0.0355 0,-0.0533c0,-0.0178 0,-0.0357 0,-0.0537c0,-0.0179 0,-0.036 0,-0.054c0,-0.0181 0,-0.0363 0,-0.0545c0,-0.0182 0,-0.0364 0,-0.0547c0,-0.0184 0,-0.0367 0,-0.0552c0,-0.0184 0,-0.0369 0,-0.0555c0,-0.0186 0,-0.0372 0,-0.0559c0,-0.0187 0,-0.0374 0,-0.0562c0,-0.0188 0,-0.0377 0,-0.0566c0,-0.0189 0,-0.0379 0,-0.0569c0,-0.0191 0,-0.0382 0,-0.0573c0,-0.0192 0,-0.0384 0,-0.0577c0,-0.0193 0,-0.0386 0,-0.058c0,-0.0194 0,-0.0389 0,-0.0584c0,-0.0195 0,-0.0391 0,-0.0587c0,-0.0196 0,-0.0393 0,-0.059c0,-0.0198 0,-0.0396 0,-0.0594c0,-0.0199 0,-0.0398 0,-0.0598c0,-0.02 0,-0.04 0,-0.0601c0,-0.0201 0,-0.0402 0,-0.0604c0,-0.0202 0,-0.0405 0,-0.0608c0,-0.0203 0,-0.0407 0,-0.0611c0,-0.0204 0,-0.0409 0,-0.0615c0,-0.0205 0,-0.0411 0,-0.0618c0,-0.0206 0,-0.0413 0,-0.0621c0,-0.0207 0,-0.0416 0,-0.0624c0,-0.0209 0,-0.0418 0,-0.0628c0,-0.021 0,-0.042 0,-0.0631c0,-0.0211 0,-0.0423 0,-0.0635c0,-0.0212 0,-0.0424 0,-0.0638c0,-0.0213 0,-0.0426 0,-0.0641c0,-0.0214 0,-0.0429 0,-0.0644c0,-0.0215 0,-0.0431 0,-0.0647c0,-0.0217 0,-0.0434 0,-0.0651c0,-0.0217 0,-0.0435 0,-0.0654c0,-0.0218 0,-0.0437 0,-0.0657c0,-0.022 0,-0.044 0,-0.066c0,-0.0221 0,-0.0442 0,-0.0664c0,-0.0221 0,-0.0444 0,-0.0666c0,-0.0223 0,-0.0446 0,-0.067c0,-0.0224 0,-0.0448 0,-0.0673c0,-0.0225 0,-0.045 0,-0.0676c0,-0.0225 0,-0.0452 0,-0.0679c0,-0.0226 0,-0.0454 0,-0.0682c0,-0.0228 0,-0.0456 0,-0.0685c0,-0.0229 0,-0.0458 0,-0.0688c0,-0.023 0,-0.046 0,-0.0691c0,-0.0231 0,-0.0462 0,-0.0694c0,-0.0232 0,-0.0465 0,-0.0697c0,-0.0233 0,-0.0467 0,-0.0701c0,-0.0233 0,-0.0468 0,-0.0703c0,-0.0235 0,-0.047 0,-0.0706c0,-0.0236 0,-0.0472 0,-0.0709c0,-0.0237 0,-0.0474 0,-0.0712c0,-0.0237 0,-0.0476 0,-0.0714c0,-0.0239 0,-0.0478 0,-0.0718c0,-0.024 0,-0.048 0,-0.0721c0,-0.024 0,-0.0482 0,-0.0723c0,-0.0242 0,-0.0484 0,-0.0727c0,-0.0242 0,-0.0485 0,-0.0729c0,-0.0243 0,-0.0487 0,-0.0732c0,-0.0244 0,-0.0489 0,-0.0734c0,-0.0246 0,-0.0492 0,-0.0738c0,-0.0246 0,-0.0493 0,-0.074c0,-0.0247 0,-0.0495 0,-0.0743c0,-0.0248 0,-0.0497 0,-0.0746c0,-0.0249 0,-0.0499 0,-0.0749c0,-0.025 0,-0.05 0,-0.0751c0,-0.0251 0,-0.0502 0,-0.0754c0,-0.0252 0,-0.0504 0,-0.0757c0,-0.0252 0,-0.0505 0,-0.0759c0,-0.0253 0,-0.0507 0,-0.0762c0,-0.0254 0,-0.0509 0,-0.0764c0,-0.0256 0,-0.0512 0,-0.0768c0,-0.0256 0,-0.0513 0,-0.077c0,-0.0257 0,-0.0514 0,-0.0772c0,-0.0258 0,-0.0516 0,-0.0775c0,-0.0259 0,-0.0518 0,-0.0778c0,-0.0259 0,-0.0519 0,-0.078c0,-0.026 0,-0.0521 0,-0.0783c0,-0.0261 0,-0.0523 0,-0.0785c0,-0.0262 0,-0.0525 0,-0.0788c0,-0.0263 0,-0.0526 0,-0.079c0,-0.0264 0,-0.0528 0,-0.0793c0,-0.0264 0,-0.0529 0,-0.0795c0,-0.0265 0,-0.0531 0,-0.0797c0,-0.0267 0,-0.0533 0,-0.08c0,-0.0267 0,-0.0535 0,-0.0803c0,-0.0268 0,-0.0536 0,-0.0805c0,-0.0268 0,-0.0538 0,-0.0807c0,-0.027 0,-0.0539 0,-0.081c0,-0.027 0,-0.0541 0,-0.0812c0,-0.0271 0,-0.0542 0,-0.0814c0,-0.0272 0,-0.0544 0,-0.0817c0,-0.0272 0,-0.0545 0,-0.0819c0,-0.0273 0,-0.0547 0,-0.0821c0,-0.0274 0,-0.0549 0,-0.0824c0,-0.0275 0,-0.055 0,-0.0826c0,-0.0275 0,-0.0551 0,-0.0828c0,-0.0276 0,-0.0553 0,-0.083c0,-0.0277 0,-0.0555 0,-0.0833c0,-0.0278 0,-0.0556 0,-0.0835c0,-0.0278 0,-0.0557 0,-0.0837c0,-0.0279 0,-0.0559 0,-0.0839c0,-0.028 0,-0.056 0,-0.0841c0,-0.0281 0,-0.0562 0,-0.0844c0,-0.0281 0,-0.0563 0,-0.0846c0,-0.0282 0,-0.0564 0,-0.0847c0,-0.0283 0,-0.0567 0,-0.085c0,-0.0284 0,-0.0568 0,-0.0852c0,-0.0285 0,-0.0569 0,-0.0854c0,-0.0285 0,-0.0571 0,-0.0857c0,-0.0285 0,-0.0571 0,-0.0858c0,-0.0286 0,-0.0573 0,-0.086c0,-0.0287 0,-0.0575 0,-0.0862c0,-0.0288 0,-0.0576 0,-0.0865c0,-0.0288 0,-0.0577 0,-0.0866c0,-0.0289 0,-0.0578 0,-0.0868c0,-0.029 0,-0.058 0,-0.087c0,-0.0291 0,-0.0582 0,-0.0873c0,-0.0291 0,-0.0582 0,-0.0874c0,-0.0291 0,-0.0584 0,-0.0876c0,-0.0292 0,-0.0585 0,-0.0878c0,-0.0293 0,-0.0586 0,-0.088c0,-0.0293 0,-0.0587 0,-0.0881c0,-0.0295 0,-0.0589 0,-0.0884c0,-0.0295 0,-0.059 0,-0.0885c0,-0.0296 0,-0.0592 0,-0.0888c0,-0.0296 0,-0.0592 0,-0.0889c0,-0.0296 0,-0.0593 0,-0.0891c0,-0.0297 0,-0.0594 0,-0.0892c0,-0.0298 0,-0.0596 0,-0.0895c0,-0.0298 0,-0.0597 0,-0.0896c0,-0.0299 0,-0.0598 0,-0.0898c0,-0.03 0,-0.0599 0,-0.09c0,-0.03 0,-0.06 0,-0.0901c0,-0.0301 0,-0.0602 0,-0.0903c0,-0.0301 0,-0.0603 0,-0.0905c0,-0.0302 0,-0.0604 0,-0.0906c0,-0.0303 0,-0.0605 0,-0.0908c0,-0.0303 0,-0.0607 0,-0.091c0,-0.0304 0,-0.0608 0,-0.0912c0,-0.0304 0,-0.0608 0,-0.0913c0,-0.0304 0,-0.0609 0,-0.0914c0,-0.0305 0,-0.0611 0,-0.0916c0,-0.0306 0,-0.0612 0,-0.0918c0,-0.0306 0,-0.0613 0,-0.0919c0,-0.0307 0,-0.0614 0,-0.0921c0,-0.0307 0,-0.0615 0,-0.0923c0,-0.0307 0,-0.0615 0,-0.0923c0,-0.0309 0,-0.0617 0,-0.0926c0,-0.0309 0,-0.0617 0,-0.0927c0,-0.0309 0,-0.0618 0,-0.0928c0,-0.031 0,-0.062 0,-0.093c0,-0.031 0,-0.062 0,-0.0931c0,-0.0311 0,-0.0621 0,-0.0933c0,-0.0311 0,-0.0622 0,-0.0934c0,-0.0311 0,-0.0623 0,-0.0935c0,-0.0312 0,-0.0624 0,-0.0937c0,-0.0312 0,-0.0625 0,-0.0938c0,-0.0313 0,-0.0626 0,-0.0939c0,-0.0314 0,-0.0627 0,-0.0941c0,-0.0314 0,-0.0628 0,-0.0942c0,-0.0315 0,-0.0629 0,-0.0944c0,-0.0315 0,-0.0629 0,-0.0945c0,-0.0315 0,-0.063 0,-0.0946c0,-0.0315 0,-0.0631 0,-0.0947c0,-0.0316 0,-0.0632 0,-0.0948c0,-0.0317 0,-0.0633 0,-0.095c0,-0.0317 0,-0.0634 0,-0.0951c0,-0.0317 0,-0.0635 0,-0.0952c0,-0.0318 0,-0.0636 0,-0.0954c0,-0.0318 0,-0.0636 0,-0.0954c0,-0.0318 0,-0.0637 0,-0.0956c0,-0.0319 0,-0.0637 0,-0.0957c0,-0.0319 0,-0.0638 0,-0.0958c0,-0.0319 0,-0.0639 0,-0.0959c0,-0.0319 0,-0.064 0,-0.096c0,-0.032 0,-0.064 0,-0.0961c0,-0.0321 0,-0.0641 0,-0.0962c0,-0.0321 0,-0.0642 0,-0.0964c0,-0.0321 0,-0.0642 0,-0.0964c0,-0.0322 0,-0.0643 0,-0.0965c0,-0.0322 0,-0.0645 0,-0.0967c0,-0.0322 0,-0.0645 0,-0.0967c0,-0.0323 0,-0.0646 0,-0.0969c0,-0.0323 0,-0.0646 0,-0.0969c0,-0.0323 0,-0.0647 0,-0.097c0,-0.0324 0,-0.0648 0,-0.0972c0,-0.0324 0,-0.0648 0,-0.0972c0,-0.0324 0,-0.0648 0,-0.0973c0,-0.0324 0,-0.0649 0,-0.0974c0,-0.0325 0,-0.065 0,-0.0975c0,-0.0325 0,-0.065 0,-0.0975c0,-0.0326 0,-0.0651 0,-0.0977c0,-0.0326 0,-0.0651 0,-0.0977c0,-0.0326 0,-0.0652 0,-0.0979c0,-0.0326 0,-0.0652 0,-0.0979c0,-0.0326 0,-0.0653 0,-0.0979c0,-0.0327 0,-0.0654 0,-0.0981c0,-0.0327 0,-0.0654 0,-0.0981c0,-0.0328 0,-0.0655 0,-0.0982c0,-0.0328 0,-0.0655 0,-0.0983c0,-0.0328 0,-0.0656 0,-0.0984c0,-0.0328 0,-0.0656 0,-0.0984c0,-0.0328 0,-0.0656 0,-0.0985c0,-0.0328 0,-0.0657 0,-0.0985c0,-0.0329 0,-0.0658 0,-0.0987c0,-0.0329 0,-0.0658 0,-0.0987c0,-0.0329 0,-0.0658 0,-0.0987c0,-0.0329 0,-0.0659 0,-0.0988c0,-0.033 0,-0.0659 0,-0.0989c0,-0.033 0,-0.0659 0,-0.0989c0,-0.033 0,-0.066 0,-0.099c0,-0.033 0,-0.066 0,-0.099c0,-0.0331 0,-0.0661 0,-0.0991c0,-0.0331 0,-0.0661 0,-0.0992c0,-0.033 0,-0.0661 0,-0.0992c0,-0.0331 0,-0.0661 0,-0.0992c0,-0.0331 0,-0.0662 0,-0.0993c0,-0.0331 0,-0.0663 0,-0.0994c0,-0.0331 0,-0.0662 0,-0.0994c0,-0.0331 0,-0.0662 0,-0.0994c0,-0.0331 0,-0.0663 0,-0.0995c0,-0.0331 0,-0.0663 0,-0.0995c0,-0.0332 0,-0.0663 0,-0.0995c0,-0.0332 0,-0.0664 0,-0.0996c0,-0.0332 0,-0.0664 0,-0.0997c0,-0.0332 0,-0.0664 0,-0.0996c0,-0.0332 0,-0.0665 0,-0.0997c0,-0.0333 0,-0.0665 0,-0.0997c0,-0.0333 0,-0.0665 0,-0.0998c0,-0.0333 0,-0.0665 0,-0.0998c0,-0.0333 0,-0.0665 0,-0.0998c0,-0.0333 0,-0.0666 0,-0.0998c0,-0.0333 0,-0.0666 0,-0.0999c0,-0.0333 0,-0.0666 0,-0.0999c0,-0.0333 0,-0.0666 0,-0.0999c0,-0.0333 0,-0.0666 0,-0.0999c0,-0.0333 0,-0.0667 0,-0.1c0,-0.0333 0,-0.0666 0,-0.0999c0,-0.0334 0,-0.0667 0,-0.1c0,-0.0333 0,-0.0667 0,-0.1c0,-0.0333 0,-0.0667 0,-0.1c0,-0.0334 0,-0.0667 0,-0.1c0,-0.0334 0,-0.0667 0,-0.1001c0,-0.0333 0,-0.0666 0,-0.1c0,-0.0333 0,-0.0667 0,-0.1c0,-0.0334 0,-0.0667 0,-0.1001c0,-0.0333 0,-0.0667 0,-0.1c0,-0.0334 0,-0.0667 0,-0.1001c0,-0.0333 0,-0.0667 0,-0.1c0,-0.0334 0,-0.0667 0,-0.1001c0,-0.0333 0,-0.0667 0,-0.1001c0,-0.0333 0,-0.0667 0,-0.1c0,-0.0333 0,-0.0667 0,-0.1c0,-0.0334 0,-0.0667 0,-0.1001c0,-0.0333 0,-0.0667 0,-0.1c0,-0.0334 0,-0.0667 0,-0.1c0,-0.0334 0,-0.0667 0,-0.1c0,-0.0334 0,-0.0667 0,-0.1c0,-0.0334 0,-0.0667 0,-0.1c0,-0.0333 0,-0.0667 0,-0.1c0,-0.0333 0,-0.0666 0,-0.0999c0,-0.0334 0,-0.0667 0,-0.1c0,-0.0333 0,-0.0666 0,-0.0999c0,-0.0333 0,-0.0666 0,-0.0999c0,-0.0333 0,-0.0666 0,-0.0998c0,-0.0333 0,-0.0666 0,-0.0999c0,-0.0333 0,-0.0665 0,-0.0998c0,-0.0333 0,-0.0665 0,-0.0998c0,-0.0333 0,-0.0665 0,-0.0998c0,-0.0332 0,-0.0665 0,-0.0997c0,-0.0332 0,-0.0665 0,-0.0997c0,-0.0332 0,-0.0665 0,-0.0997c0,-0.0332 0,-0.0664 0,-0.0996c0,-0.0332 0,-0.0664 0,-0.0996c0,-0.0332 0,-0.0664 0,-0.0996c0,-0.0331 0,-0.0663 0,-0.0995c0,-0.0332 0,-0.0663 0,-0.0995c0,-0.0331 0,-0.0663 0,-0.0994c0,-0.0332 0,-0.0663 0,-0.0994c0,-0.0331 0,-0.0663 0,-0.0994c0,-0.0331 0,-0.0662 0,-0.0993c0,-0.0331 0,-0.0662 0,-0.0992c0,-0.0331 0,-0.0662 0,-0.0992c0,-0.0331 0,-0.0662 0,-0.0992c0,-0.033 0,-0.0661 0,-0.0991c0,-0.033 0,-0.0661 0,-0.0991c0,-0.033 0,-0.066 0,-0.099c0,-0.033 0,-0.0659 0,-0.0989c0,-0.033 0,-0.0659 0,-0.0989c0,-0.0329 0,-0.0659 0,-0.0988c0,-0.0329 0,-0.0659 0,-0.0988c0,-0.0329 0,-0.0658 0,-0.0987c0,-0.0329 0,-0.0658 0,-0.0986c0,-0.0329 0,-0.0657 0,-0.0986c0,-0.0328 0,-0.0657 0,-0.0985c0,-0.0328 0,-0.0656 0,-0.0984c0,-0.0328 0,-0.0656 0,-0.0984c0,-0.0328 0,-0.0656 0,-0.0983c0,-0.0328 0,-0.0655 0,-0.0982c0,-0.0328 0,-0.0655 0,-0.0982c0,-0.0327 0,-0.0654 0,-0.0981c0,-0.0326 0,-0.0653 0,-0.098c0,-0.0326 0,-0.0652 0,-0.0979c0,-0.0326 0,-0.0652 0,-0.0978c0,-0.0326 0,-0.0652 0,-0.0978c0,-0.0325 0,-0.0651 0,-0.0976c0,-0.0326 0,-0.0651 0,-0.0976c0,-0.0326 0,-0.0651 0,-0.0975c0,-0.0325 0,-0.065 0,-0.0975c0,-0.0324 0,-0.0649 0,-0.0973c0,-0.0324 0,-0.0648 0,-0.0972c0,-0.0324 0,-0.0648 0,-0.0972c0,-0.0323 0,-0.0647 0,-0.097c0,-0.0324 0,-0.0647 0,-0.097c0,-0.0323 0,-0.0646 0,-0.0968c0,-0.0323 0,-0.0646 0,-0.0968c0,-0.0323 0,-0.0645 0,-0.0967c0,-0.0322 0,-0.0644 0,-0.0965c0,-0.0322 0,-0.0644 0,-0.0965c0,-0.0321 0,-0.0643 0,-0.0964c0,-0.0321 0,-0.0642 0,-0.0962c0,-0.0321 0,-0.0641 0,-0.0962c0,-0.032 0,-0.064 0,-0.096c0,-0.032 0,-0.064 0,-0.0959c0,-0.032 0,-0.0639 0,-0.0959c0,-0.0319 0,-0.0638 0,-0.0957c0,-0.0319 0,-0.0637 0,-0.0956c0,-0.0318 0,-0.0636 0,-0.0954c0,-0.0318 0,-0.0636 0,-0.0954c0,-0.0318 0,-0.0635 0,-0.0952c0,-0.0318 0,-0.0635 0,-0.0952c0,-0.0317 0,-0.0633 0,-0.095c0,-0.0316 0,-0.0632 0,-0.0949c0,-0.0316 0,-0.0631 0,-0.0947c0,-0.0316 0,-0.0631 0,-0.0946c0,-0.0316 0,-0.0631 0,-0.0945c0,-0.0315 0,-0.063 0,-0.0944c0,-0.0315 0,-0.0629 0,-0.0943c0,-0.0314 0,-0.0627 0,-0.0941c0,-0.0313 0,-0.0627 0,-0.094c0,-0.0313 0,-0.0625 0,-0.0938c0,-0.0313 0,-0.0625 0,-0.0937c0,-0.0312 0,-0.0624 0,-0.0936c0,-0.0312 0,-0.0623 0,-0.0934c0,-0.0311 0,-0.0622 0,-0.0933c0,-0.0311 0,-0.0621 0,-0.0932c0,-0.031 0,-0.062 0,-0.093c0,-0.031 0,-0.0619 0,-0.0928c0,-0.031 0,-0.0619 0,-0.0928c0,-0.0308 0,-0.0617 0,-0.0925c0,-0.0309 0,-0.0617 0,-0.0925c0,-0.0307 0,-0.0615 0,-0.0922c0,-0.0308 0,-0.0615 0,-0.0921c0,-0.0307 0,-0.0614 0,-0.092c0,-0.0306 0,-0.0612 0,-0.0918c0,-0.0306 0,-0.0611 0,-0.0917c0,-0.0305 0,-0.061 0,-0.0915c0,-0.0304 0,-0.0609 0,-0.0913c0,-0.0304 0,-0.0608 0,-0.0912c0,-0.0303 0,-0.0607 0,-0.091c0,-0.0303 0,-0.0606 0,-0.0908c0,-0.0303 0,-0.0605 0,-0.0907c0,-0.0302 0,-0.0604 0,-0.0905c0,-0.0302 0,-0.0603 0,-0.0904c0,-0.0301 0,-0.0601 0,-0.0902c0,-0.03 0,-0.06 0,-0.09c0,-0.0299 0,-0.0599 0,-0.0898c0,-0.0299 0,-0.0598 0,-0.0897c0,-0.0298 0,-0.0597 0,-0.0895c0,-0.0298 0,-0.0595 0,-0.0893c0,-0.0297 0,-0.0594 0,-0.0891c0,-0.0297 0,-0.0593 0,-0.0889c0,-0.0297 0,-0.0593 0,-0.0888c0,-0.0296 0,-0.0591 0,-0.0886c0,-0.0295 0,-0.059 0,-0.0884c0,-0.0294 0,-0.0588 0,-0.0882c0,-0.0294 0,-0.0587 0,-0.088c0,-0.0294 0,-0.0586 0,-0.0879c0,-0.0292 0,-0.0584 0,-0.0876c0,-0.0292 0,-0.0584 0,-0.0875c0,-0.0291 0,-0.0582 0,-0.0873c0,-0.029 0,-0.058 0,-0.087c0,-0.029 0,-0.058 0,-0.0869c0,-0.0289 0,-0.0578 0,-0.0867c0,-0.0288 0,-0.0577 0,-0.0864c0,-0.0288 0,-0.0576 0,-0.0863c0,-0.0287 0,-0.0574 0,-0.0861c0,-0.0287 0,-0.0573 0,-0.0859c0,-0.0286 0,-0.0571 0,-0.0856c0,-0.0286 0,-0.057 0,-0.0855c0,-0.0284 0,-0.0569 0,-0.0852c0,-0.0284 0,-0.0568 0,-0.0851c0,-0.0283 0,-0.0566 0,-0.0848c0,-0.0283 0,-0.0565 0,-0.0846c0,-0.0282 0,-0.0563 0,-0.0844c0,-0.0281 0,-0.0562 0,-0.0842c0,-0.0281 0,-0.056 0,-0.084c0,-0.028 0,-0.0559 0,-0.0838c0,-0.0278 0,-0.0557 0,-0.0835c0,-0.0278 0,-0.0556 0,-0.0833c0,-0.0277 0,-0.0554 0,-0.0831c0,-0.0276 0,-0.0553 0,-0.0829c0,-0.0275 0,-0.0551 0,-0.0826c0,-0.0275 0,-0.055 0,-0.0824c0,-0.0274 0,-0.0548 0,-0.0822c0,-0.0274 0,-0.0547 0,-0.0819c0,-0.0273 0,-0.0546 0,-0.0818c0,-0.0272 0,-0.0543 0,-0.0815c0,-0.0271 0,-0.0542 0,-0.0812c0,-0.0271 0,-0.0541 0,-0.081c0,-0.027 0,-0.0539 0,-0.0808c0,-0.0269 0,-0.0538 0,-0.0806c0,-0.0268 0,-0.0535 0,-0.0803c0,-0.0267 0,-0.0534 0,-0.08c0,-0.0267 0,-0.0533 0,-0.0799c0,-0.0265 0,-0.053 0,-0.0795c0,-0.0265 0,-0.053 0,-0.0794c0,-0.0264 0,-0.0527 0,-0.079c0,-0.0264 0,-0.0526 0,-0.0789c0,-0.0262 0,-0.0524 0,-0.0785c0,-0.0262 0,-0.0523 0,-0.0784c0,-0.026 0,-0.0521 0,-0.0781c0,-0.0259 0,-0.0519 0,-0.0778c0,-0.0259 0,-0.0517 0,-0.0775c0,-0.0258 0,-0.0516 0,-0.0773c0,-0.0258 0,-0.0514 0,-0.0771c0,-0.0256 0,-0.0512 0,-0.0768c0,-0.0255 0,-0.051 0,-0.0765c0,-0.0255 0,-0.0509 0,-0.0763c0,-0.0253 0,-0.0507 0,-0.0759c0,-0.0253 0,-0.0506 0,-0.0758c0,-0.0252 0,-0.0503 0,-0.0754c0,-0.0251 0,-0.0502 0,-0.0752c0,-0.025 0,-0.05 0,-0.0749c0,-0.025 0,-0.0498 0,-0.0747c0,-0.0248 0,-0.0496 0,-0.0744c0,-0.0247 0,-0.0494 0,-0.0741c0,-0.0246 0,-0.0492 0,-0.0738c0,-0.0245 0,-0.049 0,-0.0735c0,-0.0245 0,-0.0489 0,-0.0733c0,-0.0243 0,-0.0487 0,-0.0729c0,-0.0243 0,-0.0486 0,-0.0727c0,-0.0242 0,-0.0484 0,-0.0725c0,-0.024 0,-0.0481 0,-0.0721c0,-0.024 0,-0.0479 0,-0.0718c0,-0.0239 0,-0.0478 0,-0.0716c0,-0.0238 0,-0.0475 0,-0.0712c0,-0.0237 0,-0.0474 0,-0.071c0,-0.0236 0,-0.0472 0,-0.0707c0,-0.0235 0,-0.0469 0,-0.0703c0,-0.0235 0,-0.0468 0,-0.0701c0,-0.0233 0,-0.0466 0,-0.0698c0,-0.0232 0,-0.0464 0,-0.0695l-4,0c0,0.0231 0,0.0463 0,0.0695c0,0.0232 0,0.0465 0,0.0698c0,0.0233 0,0.0466 0,0.0701c0,0.0234 0,0.0468 0,0.0703c0,0.0235 0,0.0471 0,0.0707c0,0.0236 0,0.0473 0,0.071c0,0.0237 0,0.0474 0,0.0712c0,0.0238 0,0.0477 0,0.0716c0,0.0239 0,0.0478 0,0.0718c0,0.024 0,0.0481 0,0.0721c0,0.0241 0,0.0483 0,0.0725c0,0.0241 0,0.0484 0,0.0727c0,0.0242 0,0.0486 0,0.0729c0,0.0244 0,0.0488 0,0.0733c0,0.0245 0,0.049 0,0.0735c0,0.0246 0,0.0492 0,0.0738c0,0.0247 0,0.0494 0,0.0741c0,0.0248 0,0.0496 0,0.0744c0,0.0249 0,0.0497 0,0.0747c0,0.0249 0,0.0499 0,0.0749c0,0.025 0,0.0501 0,0.0752c0,0.0251 0,0.0502 0,0.0754c0,0.0252 0,0.0505 0,0.0758c0,0.0252 0,0.0506 0,0.0759c0,0.0254 0,0.0508 0,0.0763c0,0.0255 0,0.051 0,0.0765c0,0.0256 0,0.0512 0,0.0768c0,0.0257 0,0.0513 0,0.0771c0,0.0257 0,0.0515 0,0.0773c0,0.0258 0,0.0516 0,0.0775c0,0.0259 0,0.0519 0,0.0778c0,0.026 0,0.0521 0,0.0781c0,0.0261 0,0.0522 0,0.0784c0,0.0261 0,0.0523 0,0.0785c0,0.0263 0,0.0525 0,0.0789c0,0.0263 0,0.0526 0,0.079c0,0.0264 0,0.0529 0,0.0794c0,0.0265 0,0.053 0,0.0795c0,0.0266 0,0.0532 0,0.0799c0,0.0266 0,0.0533 0,0.08c0,0.0268 0,0.0535 0,0.0803c0,0.0268 0,0.0537 0,0.0806c0,0.0269 0,0.0538 0,0.0808c0,0.0269 0,0.0539 0,0.081c0,0.027 0,0.0541 0,0.0812c0,0.0272 0,0.0543 0,0.0815c0,0.0272 0,0.0545 0,0.0818c0,0.0272 0,0.0545 0,0.0819c0,0.0274 0,0.0548 0,0.0822c0,0.0274 0,0.0549 0,0.0824c0,0.0275 0,0.0551 0,0.0826c0,0.0276 0,0.0553 0,0.0829c0,0.0277 0,0.0554 0,0.0831c0,0.0277 0,0.0555 0,0.0833c0,0.0278 0,0.0557 0,0.0835c0,0.0279 0,0.0558 0,0.0838c0,0.028 0,0.0559 0,0.084c0,0.028 0,0.0561 0,0.0842c0,0.0281 0,0.0562 0,0.0844c0,0.0281 0,0.0563 0,0.0846c0,0.0282 0,0.0565 0,0.0848c0,0.0283 0,0.0567 0,0.0851c0,0.0283 0,0.0568 0,0.0852c0,0.0285 0,0.0569 0,0.0855c0,0.0285 0,0.057 0,0.0856c0,0.0286 0,0.0572 0,0.0859c0,0.0287 0,0.0574 0,0.0861c0,0.0287 0,0.0575 0,0.0863c0,0.0287 0,0.0576 0,0.0864c0,0.0289 0,0.0578 0,0.0867c0,0.0289 0,0.0579 0,0.0869c0,0.029 0,0.058 0,0.087c0,0.0291 0,0.0582 0,0.0873c0,0.0291 0,0.0583 0,0.0875c0,0.0292 0,0.0584 0,0.0876c0,0.0293 0,0.0585 0,0.0879c0,0.0293 0,0.0586 0,0.088c0,0.0294 0,0.0588 0,0.0882c0,0.0294 0,0.0589 0,0.0884c0,0.0295 0,0.059 0,0.0886c0,0.0295 0,0.0591 0,0.0888c0,0.0296 0,0.0592 0,0.0889c0,0.0297 0,0.0594 0,0.0891c0,0.0298 0,0.0595 0,0.0893c0,0.0298 0,0.0597 0,0.0895c0,0.0299 0,0.0598 0,0.0897c0,0.0299 0,0.0599 0,0.0898c0,0.03 0,0.06 0,0.09c0,0.0301 0,0.0601 0,0.0902c0,0.0301 0,0.0602 0,0.0904c0,0.0301 0,0.0603 0,0.0905c0,0.0302 0,0.0604 0,0.0907c0,0.0302 0,0.0605 0,0.0908c0,0.0303 0,0.0607 0,0.091c0,0.0304 0,0.0608 0,0.0912c0,0.0304 0,0.0609 0,0.0913c0,0.0305 0,0.061 0,0.0915c0,0.0306 0,0.0611 0,0.0917c0,0.0306 0,0.0612 0,0.0918c0,0.0306 0,0.0613 0,0.092c0,0.0306 0,0.0613 0,0.0921c0,0.0307 0,0.0615 0,0.0922c0,0.0308 0,0.0616 0,0.0925c0,0.0308 0,0.0617 0,0.0925c0,0.0309 0,0.0618 0,0.0928c0,0.0309 0,0.0618 0,0.0928c0,0.031 0,0.062 0,0.093c0,0.0311 0,0.0621 0,0.0932c0,0.0311 0,0.0622 0,0.0933c0,0.0311 0,0.0622 0,0.0934c0,0.0312 0,0.0624 0,0.0936c0,0.0312 0,0.0624 0,0.0937c0,0.0313 0,0.0625 0,0.0938c0,0.0313 0,0.0627 0,0.094c0,0.0314 0,0.0627 0,0.0941c0,0.0314 0,0.0628 0,0.0943c0,0.0314 0,0.0629 0,0.0944c0,0.0314 0,0.0629 0,0.0945c0,0.0315 0,0.063 0,0.0946c0,0.0316 0,0.0631 0,0.0947c0,0.0317 0,0.0633 0,0.0949c0,0.0317 0,0.0633 0,0.095c0,0.0317 0,0.0634 0,0.0952c0,0.0317 0,0.0634 0,0.0952c0,0.0318 0,0.0636 0,0.0954c0,0.0318 0,0.0636 0,0.0954c0,0.0319 0,0.0637 0,0.0956c0,0.0319 0,0.0638 0,0.0957c0,0.032 0,0.0639 0,0.0959c0,0.0319 0,0.0639 0,0.0959c0,0.032 0,0.064 0,0.096c0,0.0321 0,0.0641 0,0.0962c0,0.032 0,0.0641 0,0.0962c0,0.0321 0,0.0643 0,0.0964c0,0.0321 0,0.0643 0,0.0965c0,0.0321 0,0.0643 0,0.0965c0,0.0322 0,0.0644 0,0.0967c0,0.0322 0,0.0645 0,0.0968c0,0.0322 0,0.0645 0,0.0968c0,0.0323 0,0.0646 0,0.097c0,0.0323 0,0.0647 0,0.097c0,0.0324 0,0.0648 0,0.0972c0,0.0324 0,0.0648 0,0.0972c0,0.0324 0,0.0649 0,0.0973c0,0.0325 0,0.065 0,0.0975c0,0.0324 0,0.0649 0,0.0975c0,0.0325 0,0.065 0,0.0976c0,0.0325 0,0.0651 0,0.0976c0,0.0326 0,0.0652 0,0.0978c0,0.0326 0,0.0652 0,0.0978c0,0.0327 0,0.0653 0,0.0979c0,0.0327 0,0.0654 0,0.098c0,0.0327 0,0.0654 0,0.0981c0,0.0327 0,0.0654 0,0.0982c0,0.0327 0,0.0654 0,0.0982c0,0.0327 0,0.0655 0,0.0983c0,0.0328 0,0.0656 0,0.0984c0,0.0328 0,0.0656 0,0.0984c0,0.0328 0,0.0657 0,0.0985c0,0.0329 0,0.0657 0,0.0986c0,0.0328 0,0.0657 0,0.0986c0,0.0329 0,0.0658 0,0.0987c0,0.0329 0,0.0659 0,0.0988c0,0.0329 0,0.0659 0,0.0988c0,0.033 0,0.0659 0,0.0989c0,0.033 0,0.0659 0,0.0989c0,0.033 0,0.066 0,0.099c0,0.033 0,0.0661 0,0.0991c0,0.033 0,0.0661 0,0.0991c0,0.033 0,0.0661 0,0.0992c0,0.033 0,0.0661 0,0.0992c0,0.033 0,0.0661 0,0.0992c0,0.0331 0,0.0662 0,0.0993c0,0.0331 0,0.0663 0,0.0994c0,0.0331 0,0.0662 0,0.0994c0,0.0331 0,0.0663 0,0.0994c0,0.0332 0,0.0663 0,0.0995c0,0.0332 0,0.0664 0,0.0995c0,0.0332 0,0.0664 0,0.0996c0,0.0332 0,0.0664 0,0.0996c0,0.0332 0,0.0664 0,0.0996c0,0.0332 0,0.0665 0,0.0997c0,0.0332 0,0.0665 0,0.0997c0,0.0332 0,0.0665 0,0.0997c0,0.0333 0,0.0665 0,0.0998c0,0.0333 0,0.0665 0,0.0998c0,0.0333 0,0.0665 0,0.0998c0,0.0333 0,0.0666 0,0.0999c0,0.0332 0,0.0665 0,0.0998c0,0.0333 0,0.0666 0,0.0999c0,0.0333 0,0.0666 0,0.0999c0,0.0333 0,0.0666 0,0.1c0,0.0333 0,0.0666 0,0.0999c0,0.0333 0,0.0667 0,0.1c0,0.0333 0,0.0666 0,0.1c0,0.0333 0,0.0666 0,0.1c0,0.0333 0,0.0666 0,0.1c0,0.0333 0,0.0666 0,0.1c0,0.0333 0,0.0667 0,0.1c0,0.0334 0,0.0667 0,0.1001c0,0.0333 0,0.0667 0,0.1c0,0.0333 0,0.0667 0,0.1c0,0.0334 0,0.0668 0,0.1001c0,0.0334 0,0.0667 0,0.1001c0,0.0333 0,0.0667 0,0.1c0,0.0334 0,0.0667 0,0.1001c0,0.0333 0,0.0667 0,0.1c0,0.0334 0,0.0667 0,0.1001c0,0.0333 0,0.0667 0,0.1c0,0.0334 0,0.0667 0,0.1c0,0.0334 0,0.0667 0,0.1001c0,0.0333 0,0.0666 0,0.1c0,0.0333 0,0.0667 0,0.1c0,0.0333 0,0.0667 0,0.1c0,0.0333 0,0.0666 0,0.1c0,0.0333 0,0.0666 0,0.0999c0,0.0333 0,0.0667 0,0.1c0,0.0333 0,0.0666 0,0.0999c0,0.0333 0,0.0666 0,0.0999c0,0.0333 0,0.0666 0,0.0999c0,0.0333 0,0.0666 0,0.0999c0,0.0332 0,0.0665 0,0.0998c0,0.0333 0,0.0665 0,0.0998c0,0.0333 0,0.0665 0,0.0998c0,0.0333 0,0.0665 0,0.0998c0,0.0332 0,0.0664 0,0.0997c0,0.0332 0,0.0665 0,0.0997c0,0.0332 0,0.0664 0,0.0996c0,0.0333 0,0.0665 0,0.0997c0,0.0332 0,0.0664 0,0.0996c0,0.0332 0,0.0663 0,0.0995c0,0.0332 0,0.0664 0,0.0995c0,0.0332 0,0.0664 0,0.0995c0,0.0332 0,0.0663 0,0.0994c0,0.0332 0,0.0663 0,0.0994c0,0.0331 0,0.0663 0,0.0994c0,0.0331 0,0.0662 0,0.0993c0,0.0331 0,0.0661 0,0.0992c0,0.0331 0,0.0662 0,0.0992c0,0.0331 0,0.0661 0,0.0992c0,0.033 0,0.066 0,0.0991c0,0.033 0,0.066 0,0.099c0,0.033 0,0.066 0,0.099c0,0.033 0,0.0659 0,0.0989c0,0.033 0,0.0659 0,0.0989c0,0.0329 0,0.0659 0,0.0988c0,0.0329 0,0.0658 0,0.0987c0,0.0329 0,0.0658 0,0.0987c0,0.0329 0,0.0658 0,0.0987c0,0.0328 0,0.0657 0,0.0985c0,0.0329 0,0.0657 0,0.0985c0,0.0328 0,0.0656 0,0.0984c0,0.0328 0,0.0656 0,0.0984c0,0.0328 0,0.0655 0,0.0983c0,0.0327 0,0.0654 0,0.0982c0,0.0327 0,0.0654 0,0.0981c0,0.0327 0,0.0654 0,0.0981c0,0.0326 0,0.0653 0,0.0979c0,0.0327 0,0.0653 0,0.0979c0,0.0327 0,0.0653 0,0.0979c0,0.0326 0,0.0651 0,0.0977c0,0.0326 0,0.0651 0,0.0977c0,0.0325 0,0.065 0,0.0975c0,0.0325 0,0.065 0,0.0975c0,0.0325 0,0.065 0,0.0974c0,0.0325 0,0.0649 0,0.0973c0,0.0324 0,0.0648 0,0.0972c0,0.0324 0,0.0648 0,0.0972c0,0.0323 0,0.0647 0,0.097c0,0.0323 0,0.0646 0,0.0969c0,0.0323 0,0.0646 0,0.0969c0,0.0322 0,0.0645 0,0.0967c0,0.0322 0,0.0645 0,0.0967c0,0.0322 0,0.0643 0,0.0965c0,0.0322 0,0.0643 0,0.0964c0,0.0322 0,0.0643 0,0.0964c0,0.0321 0,0.0641 0,0.0962c0,0.0321 0,0.0641 0,0.0961c0,0.032 0,0.0641 0,0.096c0,0.032 0,0.064 0,0.0959c0,0.032 0,0.0639 0,0.0958c0,0.032 0,0.0638 0,0.0957c0,0.0319 0,0.0638 0,0.0956c0,0.0318 0,0.0636 0,0.0954c0,0.0318 0,0.0636 0,0.0954c0,0.0317 0,0.0635 0,0.0952c0,0.0317 0,0.0634 0,0.0951c0,0.0317 0,0.0633 0,0.095c0,0.0316 0,0.0632 0,0.0948c0,0.0316 0,0.0632 0,0.0947c0,0.0316 0,0.0631 0,0.0946c0,0.0316 0,0.063 0,0.0945c0,0.0315 0,0.0629 0,0.0944c0,0.0314 0,0.0628 0,0.0942c0,0.0314 0,0.0627 0,0.0941c0,0.0313 0,0.0626 0,0.0939c0,0.0313 0,0.0626 0,0.0938c0,0.0313 0,0.0625 0,0.0937c0,0.0312 0,0.0624 0,0.0935c0,0.0312 0,0.0623 0,0.0934c0,0.0312 0,0.0622 0,0.0933c0,0.0311 0,0.0621 0,0.0931c0,0.031 0,0.062 0,0.093c0,0.031 0,0.0619 0,0.0928c0,0.031 0,0.0618 0,0.0927c0,0.0309 0,0.0617 0,0.0926c0,0.0308 0,0.0616 0,0.0923c0,0.0308 0,0.0616 0,0.0923c0,0.0307 0,0.0614 0,0.0921c0,0.0306 0,0.0613 0,0.0919c0,0.0306 0,0.0612 0,0.0918c0,0.0305 0,0.0611 0,0.0916c0,0.0305 0,0.061 0,0.0914c0,0.0305 0,0.0609 0,0.0913c0,0.0304 0,0.0608 0,0.0912c0,0.0303 0,0.0607 0,0.091c0,0.0303 0,0.0605 0,0.0908c0,0.0302 0,0.0604 0,0.0906c0,0.0302 0,0.0604 0,0.0905c0,0.0301 0,0.0602 0,0.0903c0,0.0301 0,0.0601 0,0.0901c0,0.0301 0,0.06 0,0.09c0,0.03 0,0.0599 0,0.0898c0,0.0299 0,0.0598 0,0.0896c0,0.0299 0,0.0597 0,0.0895c0,0.0298 0,0.0595 0,0.0892c0,0.0298 0,0.0595 0,0.0891c0,0.0297 0,0.0593 0,0.0889c0,0.0296 0,0.0592 0,0.0888c0,0.0295 0,0.059 0,0.0885c0,0.0295 0,0.0589 0,0.0884c0,0.0294 0,0.0588 0,0.0881c0,0.0294 0,0.0587 0,0.088c0,0.0293 0,0.0586 0,0.0878c0,0.0292 0,0.0585 0,0.0876c0,0.0292 0,0.0583 0,0.0874c0,0.0291 0,0.0582 0,0.0873c0,0.029 0,0.058 0,0.087c0,0.029 0,0.0579 0,0.0868c0,0.0289 0,0.0578 0,0.0866c0,0.0289 0,0.0577 0,0.0865c0,0.0287 0,0.0575 0,0.0862c0,0.0287 0,0.0574 0,0.086c0,0.0287 0,0.0573 0,0.0858c0,0.0286 0,0.0572 0,0.0857c0,0.0285 0,0.0569 0,0.0854c0,0.0284 0,0.0568 0,0.0852c0,0.0283 0,0.0567 0,0.085c0,0.0283 0,0.0565 0,0.0847c0,0.0283 0,0.0565 0,0.0846c0,0.0282 0,0.0563 0,0.0844c0,0.0281 0,0.0561 0,0.0841c0,0.028 0,0.056 0,0.0839c0,0.028 0,0.0559 0,0.0837c0,0.0279 0,0.0557 0,0.0835c0,0.0278 0,0.0556 0,0.0833c0,0.0277 0,0.0554 0,0.083c0,0.0277 0,0.0553 0,0.0828c0,0.0276 0,0.0551 0,0.0826c0,0.0275 0,0.055 0,0.0824c0,0.0274 0,0.0548 0,0.0821c0,0.0274 0,0.0547 0,0.0819c0,0.0273 0,0.0545 0,0.0817c0,0.0272 0,0.0543 0,0.0814c0,0.0271 0,0.0542 0,0.0812c0,0.0271 0,0.054 0,0.081c0,0.0269 0,0.0539 0,0.0807c0,0.0269 0,0.0537 0,0.0805c0,0.0268 0,0.0536 0,0.0803c0,0.0267 0,0.0533 0,0.08c0,0.0266 0,0.0532 0,0.0797c0,0.0266 0,0.0531 0,0.0795c0,0.0265 0,0.0529 0,0.0793c0,0.0264 0,0.0527 0,0.079c0,0.0263 0,0.0526 0,0.0788c0,0.0262 0,0.0524 0,0.0785c0,0.0262 0,0.0523 0,0.0783c0,0.0261 0,0.0521 0,0.078c0,0.026 0,0.0519 0,0.0778c0,0.0259 0,0.0517 0,0.0775c0,0.0258 0,0.0515 0,0.0772c0,0.0257 0,0.0514 0,0.077c0,0.0256 0,0.0512 0,0.0768c0,0.0255 0,0.051 0,0.0764c0,0.0255 0,0.0509 0,0.0762c0,0.0254 0,0.0507 0,0.0759c0,0.0253 0,0.0505 0,0.0757c0,0.0252 0,0.0503 0,0.0754c0,0.0251 0,0.0501 0,0.0751c0,0.025 0,0.05 0,0.0749c0,0.0249 0,0.0498 0,0.0746c0,0.0248 0,0.0496 0,0.0743c0,0.0247 0,0.0494 0,0.074c0,0.0246 0,0.0492 0,0.0738c0,0.0245 0,0.049 0,0.0734c0,0.0245 0,0.0489 0,0.0732c0,0.0244 0,0.0487 0,0.0729c0,0.0243 0,0.0485 0,0.0727c0,0.0241 0,0.0483 0,0.0723c0,0.0241 0,0.0481 0,0.0721c0,0.024 0,0.0479 0,0.0718c0,0.0238 0,0.0477 0,0.0714c0,0.0238 0,0.0475 0,0.0712c0,0.0237 0,0.0473 0,0.0709c0,0.0236 0,0.0471 0,0.0706c0,0.0235 0,0.047 0,0.0703c0,0.0234 0,0.0468 0,0.0701c0,0.0232 0,0.0465 0,0.0697c0,0.0232 0,0.0463 0,0.0694c0,0.0231 0,0.0461 0,0.0691c0,0.023 0,0.0459 0,0.0688c0,0.0229 0,0.0457 0,0.0685c0,0.0228 0,0.0456 0,0.0682c0,0.0227 0,0.0454 0,0.0679c0,0.0226 0,0.0451 0,0.0676c0,0.0225 0,0.0449 0,0.0673c0,0.0224 0,0.0447 0,0.067c0,0.0222 0,0.0445 0,0.0666c0,0.0222 0,0.0443 0,0.0664c0,0.022 0,0.044 0,0.066c0,0.022 0,0.0439 0,0.0657c0,0.0219 0,0.0437 0,0.0654c0,0.0217 0,0.0434 0,0.0651c0,0.0216 0,0.0432 0,0.0647c0,0.0215 0,0.043 0,0.0644c0,0.0215 0,0.0428 0,0.0641c0,0.0214 0,0.0426 0,0.0638c0,0.0212 0,0.0424 0,0.0635c0,0.0211 0,0.0421 0,0.0631c0,0.021 0,0.0419 0,0.0628c0,0.0208 0,0.0417 0,0.0624c0,0.0208 0,0.0415 0,0.0621c0,0.0207 0,0.0413 0,0.0618c0,0.0206 0,0.0411 0,0.0615c0,0.0204 0,0.0408 0,0.0611c0,0.0203 0,0.0406 0,0.0608c0,0.0202 0,0.0403 0,0.0604c0,0.0201 0,0.0401 0,0.0601c0,0.02 0,0.0399 0,0.0598c0,0.0198 0,0.0396 0,0.0594c0,0.0197 0,0.0394 0,0.059c0,0.0196 0,0.0392 0,0.0587c0,0.0195 0,0.039 0,0.0584c0,0.0194 0,0.0387 0,0.058c0,0.0193 0,0.0385 0,0.0577c0,0.0191 0,0.0382 0,0.0573c0,0.019 0,0.038 0,0.0569c0,0.0189 0,0.0378 0,0.0566c0,0.0188 0,0.0375 0,0.0562c0,0.0187 0,0.0373 0,0.0559c0,0.0186 0,0.0371 0,0.0555c0,0.0185 0,0.0368 0,0.0552c0,0.0183 0,0.0365 0,0.0547c0,0.0182 0,0.0364 0,0.0545c0,0.018 0,0.0361 0,0.054c0,0.018 0,0.0359 0,0.0537c0,0.0178 0,0.0356 0,0.0533c0,0.0177 0,0.0354 0,0.053c0,0.0175 0,0.0351 0,0.0525c0,0.0175 0,0.0349 0,0.0522c0,0.0174 0,0.0346 0,0.0518c0,0.0172 0,0.0344 0,0.0515c0,0.0171 0,0.0341 0,0.051c0,0.017 0,0.0339 0,0.0507c0,0.0168 0,0.0336 0,0.0503c0,0.0167 0,0.0334 0,0.0499c0,0.0166 0,0.0331 0,0.0496c0,0.0164 0,0.0328 0,0.0491c0,0.0163 0,0.0326 0,0.0488c0,0.0162 0,0.0323 0,0.0483c0,0.0161 0,0.0321 0,0.048c0,0.0159 0,0.0318 0,0.0476c0,0.0158 0,0.0315 0,0.0472c0,0.0157 0,0.0313 0,0.0468c0,0.0155 0,0.031 0,0.0464c0,0.0154 0,0.0307 0,0.046c0,0.0153 0,0.0305 0,0.0456c0,0.0151 0,0.0302 0,0.0452c0,0.015 0,0.0299 0,0.0448c0,0.0149 0,0.0297 0,0.0444c0,0.0147 0,0.0294 0,0.044c0,0.0146 0,0.0291 0,0.0436c0,0.0144 0,0.0288 0,0.0431c0,0.0144 0,0.0286 0,0.0428c0,0.0142 0,0.0283 0,0.0424c0,0.014 0,0.028 0,0.0419c0,0.0139 0,0.0278 0,0.0415c0,0.0138 0,0.0275 0,0.0411c0,0.0137 0,0.0272 0,0.0407c0,0.0135 0,0.027 0,0.0403c0,0.0134 0,0.0267 0,0.0399c0,0.0132 0,0.0263 0,0.0394c0,0.0131 0,0.0261 0,0.039c0,0.0129 0,0.0258 0,0.0386c0,0.0128 0,0.0255 0,0.0382c0,0.0126 0,0.0252 0,0.0377c0,0.0125 0,0.0249 0,0.0373c0,0.0124 0,0.0247 0,0.0369c0,0.0122 0,0.0243 0,0.0364c0,0.0121 0,0.0241 0,0.036c0,0.012 0,0.0238 0,0.0356c0,0.0118 0,0.0235 0,0.0351c0,0.0117 0,0.0232 0,0.0347c0,0.0115 0,0.023 0,0.0343c0,0.0113 0,0.0226 0,0.0338c0,0.0112 0,0.0223 0,0.0334c0,0.011 0,0.022 0,0.0329c0,0.0109 0,0.0218 0,0.0325c0,0.0108 0,0.0215 0,0.0321c0,0.0106 0,0.0211 0,0.0316c0,0.0104 0,0.0208 0,0.0311c0,0.0103 0,0.0205 0,0.0307l4,0zm-2.104,-43.9973l-48.00003,2.5l0.20806,3.9946l47.99997,-2.5l-0.208,-3.9946z" id="body"/>
   <path stroke-width="4" stroke="black" d="m4.49999,105c-6,-6.8 1.16668,-21.8333 5.50001,-27.5c4.1667,1.5 14.1,6.8 18.5,14c4.4,7.2 2.8333,21.167 1,26.5c-5.3333,-1.5 -19,-6.2 -25.00001,-13z" id="heel"/>
   <path stroke-width="4" stroke="black" d="m17,2l1.5,29.5221m10,-29.0221l1,28.5m11,-28.5l0,28m-35.5,-28.5l2.04082,30l47.95918,-2l0,-28l-50,0z" id="band"/>
  </g>
  <path d="m8.68627,96.16666c0.19608,0 0.40708,-0.07504 0.58824,0c0.25619,0.10612 0.25954,0.29807 0.58823,0.58823c0.53001,0.46788 0.53218,0.82582 0.98039,1.37255c0.1758,0.21445 0.376,0.27193 0.58823,0.78432c0.07503,0.18115 0.19608,0.19608 0.19608,0.39216c0,0.19608 0.05743,0.2535 0.19608,0.39215c0.13865,0.13865 0.39216,0.19608 0.39216,0.39216c0,0.19608 0,0.39216 0,0.58823l0.19608,0.39216" id="svg_9" stroke="#000" fill="none"/>
  <path d="m15.15686,98.91176c-0.19608,0 -0.05743,-0.25351 -0.19608,-0.39216c-0.13865,-0.13865 -0.211,-0.12104 -0.39216,-0.19608c-0.25619,-0.10612 -0.28604,-0.33205 -0.39216,-0.58824c-0.07503,-0.18115 -0.19608,-0.39215 -0.39216,-0.58823c-0.19608,-0.19608 -0.25351,-0.25351 -0.39216,-0.39216c-0.13865,-0.13865 -0.05743,-0.44958 -0.19608,-0.58823c-0.13865,-0.13865 -0.31712,-0.01492 -0.39216,-0.19608c-0.10612,-0.25619 -0.22536,-0.28907 -0.39216,-0.39216c-0.37296,-0.23051 -0.31712,-0.40708 -0.39216,-0.58823c-0.10612,-0.25619 -0.25351,-0.25351 -0.39216,-0.39216c-0.13865,-0.13865 0,-0.39216 -0.19608,-0.39216l0,-0.19608" id="svg_10" stroke="#000" fill="none"/>
  <path d="m8.09803,98.32352c0.19608,0 0.3731,-0.24004 0.78431,-0.39216c0.75824,-0.28049 1.34873,-0.68499 1.96078,-0.78432c0.19355,-0.03141 0.16152,-0.29142 0.58823,-0.39216c0.19083,-0.04505 0.58824,-0.19608 0.78431,-0.39215c0.19608,-0.19608 0.46802,-0.37601 0.98039,-0.58823c0.18115,-0.07504 0.78431,-0.19608 0.98039,-0.39216l0.19608,0l0,-0.19608" id="svg_11" stroke="#000" fill="none"/>
  <path d="m9.66666,99.69607c0.19608,-0.19608 0.33205,-0.28603 0.58824,-0.39215c0.36231,-0.15007 0.61947,-0.11974 1.17647,-0.39216c0.63508,-0.31061 1.10735,-0.97501 1.96078,-1.17648c0.19083,-0.04505 0.39216,-0.19608 0.58823,-0.19608c0.19608,0 0.39216,-0.19608 0.58823,-0.19608c0.19608,0 0.25351,-0.05743 0.39216,-0.19608c0.13865,-0.13865 0.39216,0 0.58823,0l0,-0.19608l0.19608,0" id="svg_12" stroke="#000" fill="none"/>
  <path d="m85.15685,139.10783c0.19608,0 0.39216,0 0.98039,0c0.39216,0 0.60316,-0.07504 0.78432,0c0.25619,0.10611 0.3576,0.4875 0.78431,0.58824c0.19083,0.04506 0.25351,0.05743 0.39216,0.19608c0.27729,0.2773 0,0.58823 0,0.78432c0,0.19608 0.05743,0.44958 0.19608,0.58823c0.13865,0.13864 0.48212,0.13597 0.58823,0.39217c0.07504,0.18115 0.25465,0.18597 0.58823,0.39215c0.37296,0.2305 0.33205,0.48212 0.58823,0.58823c0.18115,0.07503 0.39216,0.19609 0.39216,0.39217l0,0.19608l0,0.19608" id="svg_13" stroke="#000" fill="none"/>
  <path d="m74.96078,150.87254c0,0.19608 -0.12104,0.40707 -0.19608,0.58823c-0.10612,0.2562 -0.24208,0.22592 -0.39216,0.58824c-0.10612,0.2562 -0.19608,0.39215 -0.19608,0.58823c0,0.19609 0,0.39217 0,0.58824c0,0.19608 0,0.39215 0,0.78432c0,0.19608 0,0.39215 0,0.78432c0,0.19608 -0.05743,0.25351 -0.19608,0.39215c-0.13865,0.13864 -0.16165,0.21527 -0.39216,0.58824c-0.10308,0.16679 -0.19608,0.19608 -0.39216,0.39215c-0.19608,0.19608 -0.39215,0.39215 -0.58823,0.58824c-0.19608,0.19608 -0.58823,0.39215 -0.58823,0.58823l-0.19608,0.19608" id="svg_14" stroke="#000" fill="none"/>
 </g>
</svg>