<svg width="96" height="161" viewBox="0 0 96 161" fill="none" xmlns="http://www.w3.org/2000/svg">
    <g id="sock_fill">
        <path id="point" fill="#D9D9D9" stroke="black" stroke-width="4" d="M 64.24398191242356 155.21931014985145 L 68.03400461978975 157.97344695786154 L 74.14236980304358 158.95866714870894 L 81.72856527256849 156.79118272884466 L 77.09803037558575 150.0916854310824 L 81.72856527256849 150.38725148833663 L 82.51674142524641 146.15080466769285 L 89.90589285660184 148.71237716389606 L 92.96007544822876 142.60401198064224 L 92.86155342914402 135.51042660654102 L 92.05930204305538 130.9314993604675 L 85.43956286302381 130.40135684754532 L 79.26551479545002 132.16067795765989 L 73.74828172670462 135.51042660654102 L 69.01922481063716 139.84539544626955 L 65.66947616175602 145.7567165913539 L 63.6005137609765 151.27394966009928 L 64.24398191242356 155.21931014985145 z"/>
        
        <g id="body">
            <path d="M10 77L7 32L55 29.5V71.5C55 76.7 57 83 58 85.5C69.8333 100.667 93.3 130.9 92.5 130.5C87.5 129 79.5 130.5 73 136C63 146 64.6667 150.5 64 155C52.6667 143 29.5 118.4 29.5 118C33 97.5 29.5 97.5 28 91.5C26.8 86.7 16 80.1667 10 77Z" fill="#D9D9D9"/>
            <path d="M7 32L6.89597 30.0027L4.86944 30.1083L5.00443 32.133L7 32ZM10 77L8.00443 77.133L8.07872 78.2475L9.06648 78.7688L10 77ZM28 91.5L29.9403 91.0149L29.9403 91.0149L28 91.5ZM29.5 118L27.5285 117.663L27.5 117.83V118H29.5ZM64 155L62.546 156.373L65.9784 155.293L64 155ZM73 136L71.7081 134.473L71.6446 134.527L71.5858 134.586L73 136ZM92.5 130.5L93.3944 128.711L93.24 128.634L93.0747 128.584L92.5 130.5ZM58 85.5L56.143 86.2428L56.2485 86.5064L56.4232 86.7303L58 85.5ZM55 29.5H57V27.3931L54.896 27.5027L55 29.5ZM5.00443 32.133L8.00443 77.133L11.9956 76.867L8.99557 31.867L5.00443 32.133ZM9.06648 78.7688C12.0192 80.3272 16.1272 82.7014 19.6204 85.2526C21.3691 86.5297 22.9157 87.8166 24.0776 89.035C25.28 90.2958 25.8874 91.296 26.0597 91.9851L29.9403 91.0149C29.5126 89.3041 28.3199 87.6875 26.9724 86.2744C25.5843 84.8188 23.8309 83.3744 21.9796 82.0224C18.2728 79.3152 13.9808 76.8395 10.9335 75.2312L9.06648 78.7688ZM26.0597 91.9851C26.4785 93.6601 27.0456 94.9345 27.5129 96.0574C27.9793 97.1784 28.3857 98.231 28.6597 99.6833C29.2169 102.637 29.268 107.475 27.5285 117.663L31.4715 118.337C33.232 108.025 33.2831 102.613 32.5903 98.9417C32.2393 97.0815 31.7082 95.7279 31.2059 94.5207C30.7044 93.3155 30.2715 92.3399 29.9403 91.0149L26.0597 91.9851ZM27.5 118C27.5 118.473 27.6739 118.821 27.6899 118.855C27.7413 118.966 27.7928 119.051 27.8198 119.095C27.8768 119.186 27.9341 119.264 27.9694 119.311C28.0461 119.413 28.139 119.526 28.2322 119.637C28.4241 119.865 28.6944 120.173 29.0256 120.544C29.6919 121.291 30.6497 122.341 31.8259 123.618C34.1804 126.174 37.4349 129.666 41.0399 133.517C48.2512 141.22 56.8785 150.372 62.546 156.373L65.454 153.627C59.7881 147.628 51.1655 138.48 43.9601 130.783C40.3568 126.934 37.1112 123.451 34.7679 120.907C33.5951 119.634 32.6544 118.603 32.0095 117.881C31.6852 117.517 31.4466 117.244 31.2937 117.062C31.2144 116.968 31.1759 116.919 31.1642 116.904C31.1553 116.892 31.1793 116.922 31.2139 116.978C31.2297 117.003 31.2728 117.074 31.3186 117.172C31.329 117.195 31.5 117.533 31.5 118H27.5ZM65.9784 155.293C66.158 154.081 66.1938 152.745 66.2753 151.693C66.3628 150.563 66.5125 149.43 66.9092 148.158C67.698 145.631 69.5541 142.274 74.4142 137.414L71.5858 134.586C66.4459 139.726 64.1354 143.619 63.0908 146.967C62.5708 148.633 62.3872 150.093 62.2872 151.385C62.1812 152.755 62.1754 153.669 62.0216 154.707L65.9784 155.293ZM74.2919 137.527C80.3811 132.374 87.6954 131.147 91.9253 132.416L93.0747 128.584C87.3046 126.853 78.6189 128.626 71.7081 134.473L74.2919 137.527ZM91.6056 132.289C91.6586 132.315 92.1772 132.596 92.8673 132.472C93.3121 132.393 93.7777 132.151 94.1122 131.709C94.4125 131.313 94.4902 130.91 94.5114 130.68C94.5497 130.266 94.4459 129.946 94.4247 129.878C94.3864 129.757 94.344 129.661 94.3194 129.608C94.2337 129.423 94.1205 129.245 94.0559 129.144C93.8953 128.895 93.6528 128.548 93.3564 128.136C92.7544 127.298 91.8459 126.076 90.7081 124.567C88.4291 121.543 85.1956 117.32 81.5718 112.617C74.3225 103.208 65.4948 91.8547 59.5768 84.2697L56.4232 86.7303C62.3385 94.3119 71.1608 105.658 78.4032 115.058C82.0252 119.759 85.248 123.968 87.5138 126.974C88.6484 128.48 89.5344 129.672 90.1088 130.471C90.4007 130.877 90.5918 131.153 90.6928 131.31C90.7591 131.413 90.7337 131.383 90.6906 131.29C90.6766 131.26 90.6421 131.184 90.6088 131.078C90.5925 131.026 90.4908 130.719 90.5283 130.313C90.5491 130.087 90.6257 129.687 90.9241 129.294C91.2568 128.855 91.7199 128.614 92.1613 128.535C92.8449 128.413 93.3539 128.691 93.3944 128.711L91.6056 132.289ZM59.857 84.7572C58.8929 82.3471 57 76.325 57 71.5H53C53 77.075 55.1071 83.6529 56.143 86.2428L59.857 84.7572ZM57 71.5V29.5H53V71.5H57ZM54.896 27.5027L6.89597 30.0027L7.10403 33.9973L55.104 31.4973L54.896 27.5027Z" fill="black"/>
        </g>

        <path id="heel" fill="#D9D9D9" stroke="black" stroke-width="4" d="M9.79579500876855,78.44612372583278 L13.54182994176471,80.09691668313647 L17.113258513193284,82.23977382599361 L20.84341724335201,84.93818652440632 L24.097385497320268,87.71596430218409 L26.954528354463122,90.65247223869203 L28.859290259225027,93.8270754132952 L30.287861687796457,97.79532938154917 L31.002147402082173,102.47786906408885 L31.002147402082173,108.43025001646981 L30.525956928052096,113.35088494142553 L29.573575967029527,117.3191389053587 L29.17675056804373,118.66834524808384 L24.652941061517442,117.31913889671706 L20.764052163986932,116.20802779424758 L17.192623592558363,114.77945636567615 L13.462464862399631,112.87469446091424 L10.129131529066298,110.33501192123171 L13.462464862399631,105.41437700059679 L9.335480735415505,102.71596430218409 L12.192623592558363,98.43025001646981 L2.1926235925583617,98.27151985773965 L2.7481791610763473,93.11278969900948 L3.4624648623996315,90.65247223869203 L4.414845814780584,87.95405954027933 L5.684687084621853,85.09691668313647 L6.954528354463124,82.55723414345393 C7.0180171553766115,82.3350127205815 8.28785845978436,80.74771109007182 8.28785845978436,80.74771109007182 C8.367223541309839,80.9064412531228 8.756116699899785,79.87469605897803 9.79579500876855,78.44612372583278 z"/>

        <g id="band">
            <path d="M7.04082 32L5 2H55V30L7.04082 32Z" fill="#D9D9D9"/>
            <path d="M17 2L18.5 31.5221M28.5 2.5L29.5 31M40.5 2.5V30.5M5 2L7.04082 32L55 30V2H5Z" stroke="black" stroke-width="4"/>
        </g>
    </g>
</svg>
